<svg xmlns="http://www.w3.org/2000/svg" viewBox="0 0 99.75 99.75"><defs><style>.cls-1{fill:#fff;}.cls-2,.cls-4{fill:none;stroke-miterlimit:10;}.cls-2{stroke:#e31919;stroke-width:6.35px;}.cls-3{fill:#e31919;}.cls-4{stroke:#fff;stroke-width:2.22px;}.cls-5{fill:#bf2919;}.cls-6{fill:#fbd9a0;}.cls-7{fill:#163441;}.cls-8{fill:#0c2933;}.cls-9{fill:#09262d;}.cls-10{fill:#a3c218;}.cls-11{fill:#96b521;}.cls-12{fill:#c2d17f;}.cls-13{fill:#112031;}.cls-14{fill:#3c4e5b;}.cls-15{fill:#cb7912;}.cls-16{fill:#f49825;}.cls-17{fill:#d08321;}</style></defs><g id="Layer_2" data-name="Layer 2"><g id="Layer_1-2" data-name="Layer 1"><g id="Layer_2-2" data-name="Layer 2"><g id="Layer_1-2-2" data-name="Layer 1-2"><path class="cls-1" d="M49.88,96.58A46.71,46.71,0,1,0,3.17,49.88h0a46.7,46.7,0,0,0,46.71,46.7"/><circle class="cls-2" cx="49.88" cy="49.88" r="46.7"/><path class="cls-3" d="M49.88,89.58A39.71,39.71,0,1,0,10.19,49.86v0a39.71,39.71,0,0,0,39.69,39.7"/><circle class="cls-4" cx="49.88" cy="49.88" r="39.7"/><path class="cls-5" d="M76.73,81.43c-2.25.13-4.32.19-6.06.17a30.78,30.78,0,0,1-3.84-.21,6.08,6.08,0,0,1,2.23-2.19,7,7,0,0,1,3.45-1h1.9l.25.14h0l.36.25a4.28,4.28,0,0,1,1.71,2.8"/><path class="cls-6" d="M76.86,82.73c-2.2,0-4.26.12-6,0a25,25,0,0,1-4.4-.44,5.49,5.49,0,0,1,.37-.9,29.48,29.48,0,0,0,3.76.15c1.75,0,3.91.06,6.14-.11a5.12,5.12,0,0,1,.13,1.24"/><path class="cls-6" d="M73.22,78.3a3.43,3.43,0,0,0-.56,1.32.23.23,0,0,1-.23.2h0a.26.26,0,0,1-.19-.27,4.18,4.18,0,0,1,.48-1.29h.52"/><path class="cls-6" d="M74,78.38a2.74,2.74,0,0,0-.43,1.13.24.24,0,0,1-.23.19h0a.23.23,0,0,1-.19-.26h0a3.84,3.84,0,0,1,.42-1.19H74"/><path class="cls-6" d="M74.64,78.43a3.24,3.24,0,0,0-.27.85.24.24,0,0,1-.23.19h0a.23.23,0,0,1-.19-.26h0a4.11,4.11,0,0,1,.3-1h.16l.25.14h0"/><path class="cls-7" d="M71.18,79.2h0c1.92-9.19-2.81-18-10.6-19.58a1.38,1.38,0,0,0-.58,2.7C66.87,63.76,71.22,71,70.38,79h0a.49.49,0,0,0,0,.17.41.41,0,0,0,.58.12.4.4,0,0,0,.19-.27h0Z"/><path class="cls-8" d="M71.47,77.38a1.61,1.61,0,0,1-.13.77h0a.42.42,0,0,1-.48.34.37.37,0,0,1-.29-.17.31.31,0,0,1,0-.19h0V78h0c.86-8-3.51-15.25-10.36-16.7a1.35,1.35,0,0,1-1.05-1,1.06,1.06,0,0,0-.15.42,1.36,1.36,0,0,0,1,1.63h0c6.87,1.46,11.22,8.71,10.38,16.71h0v.11h0a.67.67,0,0,0,0,.2.39.39,0,0,0,.3.17.41.41,0,0,0,.46-.34h0a13.5,13.5,0,0,0,.29-1.8"/><path class="cls-7" d="M56.61,13.63a77.28,77.28,0,0,1,7.23,24.93A1.34,1.34,0,0,0,66.46,38s0,0,0-.07a87.81,87.81,0,0,0-2.59-10.09,79.52,79.52,0,0,0-6.31-14.4Z"/><path class="cls-9" d="M64.86,39.1a1.34,1.34,0,0,0,1-1.61A83.55,83.55,0,0,0,63.3,27.38a76.42,76.42,0,0,0-6-13.94h.25a79.79,79.79,0,0,1,6.27,14.49A87.81,87.81,0,0,1,66.41,38,1.37,1.37,0,0,1,64,39.1a1.54,1.54,0,0,0,.85,0"/><path class="cls-7" d="M55.05,13.44c-.13-.14-.15-.29,0-.35s.52.17.81.21h0c-.25-.31-.67-.44-.82-.77A1.16,1.16,0,0,1,55.63,11c1.21-.21,1.92,1.57,2.17,2.72a2.64,2.64,0,0,1-2.75-.3"/><path class="cls-8" d="M57.36,13.44a2.07,2.07,0,0,1-2.17,0,2.65,2.65,0,0,0,2.57.23,2.58,2.58,0,0,0-.19-.68.76.76,0,0,1-.21.45"/><path class="cls-10" d="M66.2,61l-.18.22-.34.33a2.34,2.34,0,0,1-.37.4l-.17.2-.39.39-.21.19-.15.15-.23.2-.14.11h-.1l-.79.62-.19.16-.4.29-.18.12-.44.29-.21.11-.35.22-.23.13-1.16.6-.5.22-.52.23-.31.11a19.81,19.81,0,0,1-3.18,1.07l-.73.14c-.83.15-1.67.25-2.52.32H48.7a4.66,4.66,0,0,1-1.23-.11l-.79-.1a21.44,21.44,0,0,1-2.12-.41c-.7-.17-1-.25-1.52-.4l-.43-.12a24,24,0,0,1-3-1.18q-.78-.37-1.53-.81l-.46-.29a13.46,13.46,0,0,1-1.48-1.13,15.26,15.26,0,0,1-2.55-2.83l-.13-.19a19.21,19.21,0,0,1-1.56-2.71,21.78,21.78,0,0,1-1.31-3,26.87,26.87,0,0,1-1.27-7.44,3.23,3.23,0,0,1,0-.44V44a1.6,1.6,0,0,1,0-.31v-.37a1,1,0,0,1,0-.25,2.41,2.41,0,0,1,0-.38v-1a1,1,0,0,1,0-.25.24.24,0,0,0,0-.12.78.78,0,0,1,.09-.43c.1-.15,0-.23,0-.34l.18-.7c0-.1-.1-.1,0-.2l.09-.31v-.19l.12-.33a17.58,17.58,0,0,1,5-7.52,13.74,13.74,0,0,1,1.33-1.06,19.59,19.59,0,0,1,3.43-1.63l1-.5L42,27.54l.35-.11,1-.35.77-.21a10,10,0,0,1,1.18-.27l.38-.1L47,26.3h2.87a21.19,21.19,0,0,1,3.73.51,27,27,0,0,1,2.7.79,23.15,23.15,0,0,1,6.92,3.88,18.73,18.73,0,0,1,3,2.94A19.41,19.41,0,0,1,70.11,44.9c.58,7.15-1.08,12.42-4,16.1"/><path class="cls-11" d="M36,62.88a10,10,0,0,0-2.22-3,36.08,36.08,0,0,1-2.65-8.37v-.49a11,11,0,0,0-.29-1.6,29.4,29.4,0,0,1-.23-3.64,31.26,31.26,0,0,1,.19-3.49,7.65,7.65,0,0,0,1.5-6.41c.15-.4.31-.8.48-1.19a16.61,16.61,0,0,0-2,4.17l-.12.32v.41a.35.35,0,0,1-.09.28l-.18.69v.35a.75.75,0,0,1-.09.42v.12a1,1,0,0,0,0,.24v1a2.54,2.54,0,0,0,0,.39v.61a1.6,1.6,0,0,0,0,.31v2.62a3.23,3.23,0,0,0,0,.44,26.41,26.41,0,0,0,.48,7.37,22.65,22.65,0,0,0,1.24,3.07,19.91,19.91,0,0,0,1.56,2.68,1.27,1.27,0,0,0,.13.19,15.73,15.73,0,0,0,2.53,2.81L36,63m32.24-23c-.11-.44-.25-.88-.38-1.34a33.21,33.21,0,0,0-1.63-4.07,19,19,0,0,0-3.11-3.16,23.18,23.18,0,0,0-6.88-3.84,25.07,25.07,0,0,0-2.69-.78,19.24,19.24,0,0,0-3.62-.5H49.3l.48.48.92.9.42.71q.84,1.29,1.77,2.49A10.63,10.63,0,0,1,53.65,32c1.08,1.82,2.73,3.3,3.11,5.62,0,.39.14.83.19,1.31l.12.88a19.36,19.36,0,0,0,.65,3.36,11.12,11.12,0,0,0,.42,1.09,11.53,11.53,0,0,1,.9,3.26,3.38,3.38,0,0,0,.12,1.09,19.47,19.47,0,0,0-.69,5.14A28.8,28.8,0,0,1,58,58.53a3.64,3.64,0,0,1-.94,1.76,3.47,3.47,0,0,0-.46.79v.21h0l-.12.29c-.15.32-.3.63-.44,1a31,31,0,0,1-1.92,3.36c-.3.5-.65,1-1,1.48-.29-.54-.58-1.08-.85-1.61s-.46-.9-.67-1.36a10.77,10.77,0,0,1-.44-1.06c-.29-3.22-2.05-5.75-3.49-8.57a4.62,4.62,0,0,1-.38-3.26,10.09,10.09,0,0,1,0-1.1,10.37,10.37,0,0,0-.1-1.47h0A19.17,19.17,0,0,0,46.71,41c0-.43-.11-.89-.15-1.33.77-3.41,2.17-6.46,1.42-10.26v-.17a5.42,5.42,0,0,1,.23-1.92h0a4.52,4.52,0,0,1,.27-1H47.11l-1.26.2-.39.09a4.43,4.43,0,0,0-1.16.27l-.77.21-1,.35a12,12,0,0,0-.94,4.39c-.15.77-.27,1.57-.42,2.34-.67,1.23-1.92,1.92-2.21,3.45a10.7,10.7,0,0,1-.36,2.11c-.15,1.11-.25,2.23-.29,3.36-.11.13,0,.4-.21.53a12.73,12.73,0,0,0,1.57,6.28,7.72,7.72,0,0,1,.5,1.68A6.39,6.39,0,0,1,39.79,55a7.69,7.69,0,0,1-.19,2.14A7.4,7.4,0,0,0,41,60.33l1.09,1.36A15.74,15.74,0,0,1,43,63c.17.26.34.53.5.82a4.53,4.53,0,0,1,.27.54l.23.57a7.16,7.16,0,0,1,.23.75,38.27,38.27,0,0,1-7.44-17,29.63,29.63,0,0,1,1.26-14.5,8.81,8.81,0,0,1,.37-.92,10.54,10.54,0,0,0,1.91-2.77,10.58,10.58,0,0,0,1.19-2,4.56,4.56,0,0,1,.42-.86l-1.36.55-1,.5a20.68,20.68,0,0,0-2.73,1.69,27.86,27.86,0,0,0-1.55,3.09h0a2.58,2.58,0,0,1-.59.94,10.63,10.63,0,0,0-1.23,5v.84c-.14.94-.23,1.92-.29,2.86a12.12,12.12,0,0,1-.4,2.16.91.91,0,0,1-.39.68,9.14,9.14,0,0,0-.09,2.45,12.73,12.73,0,0,0,.3,2.46A2.26,2.26,0,0,1,33,52c.48,1,.88,1.92,1.28,3a1.94,1.94,0,0,0,.25.65,33.69,33.69,0,0,1,.23,3.47A5.89,5.89,0,0,0,35.43,61a4.46,4.46,0,0,0,1.21,1.92c.5.52,1.06,1,1.54,1.59l1.32.84h0a22.89,22.89,0,0,0,3,1.17l.42.12c.5.15,1,.29,1.52.4s1.4.29,2.11.4l.79.1a4.59,4.59,0,0,1,1.22.11h3.55a14,14,0,0,0,2.51-.32l.85-.21a20.48,20.48,0,0,0,3.16-.94l.31-.46.25-.39a1,1,0,0,0,.13-.23,1.78,1.78,0,0,0,.25-.36l.23-.36A3.7,3.7,0,0,1,60,64l.64-1.15C63,60,63.47,56.07,63.78,52.31a6.54,6.54,0,0,1,.37-1.19h0c1.63-4-.39-8.11-1.14-12.21h0a9,9,0,0,0-.15-1h0a2.54,2.54,0,0,1,0-.39V37a10.88,10.88,0,0,0-1.59-4.66h0l-.38-.5a6.91,6.91,0,0,1,.51.57,9.17,9.17,0,0,1,1.92,4.07h0a7,7,0,0,0,.31,1,.37.37,0,0,0,.13.32c.12.54.25,1.08.4,1.62a37.89,37.89,0,0,1,2.17,9,10.46,10.46,0,0,1-.19,2.3c0,.44-.11.86-.15,1.29-.62,3.43-1.1,7.17-3.24,10-.26.44-.53.86-.83,1.27s-.61.84-.88,1.17l-.27.3-.23.27h-.1l-.19.23-.19.19-.33.33-.19.19.5-.21,1.15-.6.23-.13.35-.21.21-.12.44-.28.17-.12L63,64l.19-.15.78-.61h.1l.13-.12.23-.19.16-.15.21-.2a4.54,4.54,0,0,0,.38-.38l.17-.19a2,2,0,0,0,.25-.58L66,61l.17-.21a24.39,24.39,0,0,0,2.53-6.48,26.93,26.93,0,0,0,.66-4.38V48.46a34,34,0,0,0-1.19-8.69"/><path class="cls-12" d="M29.53,41.48v-.12a.78.78,0,0,1,.09-.42"/><path class="cls-12" d="M30,40.94a20.53,20.53,0,0,0-.5,3.66v1.21h0V44.6a5,5,0,0,1,0-.55v-.92a2.54,2.54,0,0,1,0-.39V42"/><path class="cls-13" d="M44.81,33.88a2.64,2.64,0,0,0,1.44,2.17,2.12,2.12,0,0,0,2.44-.42,2.31,2.31,0,0,0-.18-3.25,2.28,2.28,0,0,0-1.57-.59,2.25,2.25,0,0,0-2.13,2.15"/><path class="cls-14" d="M48.84,33.5a6.47,6.47,0,0,0-3.18,1.55,2.44,2.44,0,0,0,.78.65,1.26,1.26,0,0,0,.67.19,1.55,1.55,0,0,0,.43,0,1.86,1.86,0,0,0,.86-.49,1.81,1.81,0,0,0,.44-1.92"/><path class="cls-1" d="M46.2,32.29a.85.85,0,0,0-.1,1,.73.73,0,0,0,.9.32c.8-.32.59-1.13,0-1.42a.59.59,0,0,0-.69,0"/><path class="cls-1" d="M48.07,33.06c-.23,0-.48.11-.4.38a.55.55,0,0,0,.58.44c.4-.11.38-.92-.18-.82"/><path class="cls-13" d="M50.36,32.56a2.47,2.47,0,0,0,1.43,2.09,2.12,2.12,0,0,0,2.44-.42,2.32,2.32,0,0,0-1.75-3.84,2.23,2.23,0,0,0-2.12,2.17"/><path class="cls-14" d="M54.35,32.1a6.24,6.24,0,0,0-3.19,1.53,2.32,2.32,0,0,0,.79.67,1.29,1.29,0,0,0,.67.18,1.48,1.48,0,0,0,.42,0,1.82,1.82,0,0,0,1.35-2.17c0-.05,0-.1,0-.16"/><path class="cls-1" d="M51.24,31A1,1,0,0,0,51,32a.79.79,0,0,0,.94.34c.82-.34.59-1.17,0-1.47a.51.51,0,0,0-.66,0"/><path class="cls-1" d="M53.21,31.48c-.19,0-.42.12-.36.35s.29.46.52.4.34-.84-.16-.75"/><path class="cls-5" d="M45,36.64a2,2,0,0,0-1.17.12c-.35.17-1.17.71-.52,1.07a2.14,2.14,0,0,0,1.17.19,3.13,3.13,0,0,0,1.27-.25c.17,0,.47-.23.38-.46A2.75,2.75,0,0,0,45,36.64"/><path class="cls-5" d="M55.94,34a1.63,1.63,0,0,1,1-.35c.37,0,1.27.19.89.77A2.08,2.08,0,0,1,57,35a3,3,0,0,1-1.15.29c-.19,0-.5,0-.53-.29s.49-.92.67-1.05"/><path class="cls-13" d="M49.26,40.9a5,5,0,0,1,3.53-2.15,7.9,7.9,0,0,1,2.61-.23c.15,0,.63-.25.33-.29a9.77,9.77,0,0,0-3.23.33A5.79,5.79,0,0,0,48.76,41c-.11.19.43,0,.5,0"/><path class="cls-1" d="M48.32,39.5c.16.5.48,1,1.08.71s.42-.71.23-1.13Z"/><path class="cls-1" d="M49.72,38.94c0,.43.23,1,.81,1a1.05,1.05,0,0,0,.9-1,1.37,1.37,0,0,0-.29-.69Z"/><path class="cls-1" d="M51.37,38.16c.12.4.42,1.65,1.11,1.17a1.12,1.12,0,0,0,.16-1.48Z"/><path class="cls-1" d="M53,37.79c.2.6.35,1.15,1.12,1.1s.49-.62.34-1.1Z"/><path class="cls-13" d="M46.83,38.12a1.17,1.17,0,0,0,.61,1.54,1.14,1.14,0,0,0,.52.09c1.19,0,1.92-.84,3-1.36a4,4,0,0,1,2.61-.46,3.2,3.2,0,0,0,1.73-.18c1.34-.61,0-1.8-.68-2.41-.13-.16-.76.13-.61.29a7.81,7.81,0,0,1,1,1.11,1,1,0,0,1,.17.61c0,.37-.86.25-1.08.23a5.9,5.9,0,0,0-1.57,0A6.14,6.14,0,0,0,51.1,38a8.66,8.66,0,0,0-1.26.71,3,3,0,0,1-1.25.69c-.92.16-1.3-.59-1.09-1.4,0-.19-.62,0-.67.16"/><path class="cls-5" d="M25.6,82.14h6a37.77,37.77,0,0,0,3.83-.31,5.76,5.76,0,0,0-2.24-2.11,6.8,6.8,0,0,0-3.47-.86H28.26L28,79h-.15l-.25.14h0l-.37.25a4.42,4.42,0,0,0-1.55,2.43"/><path class="cls-6" d="M25.42,83.44c2.19,0,4.24,0,6-.11a26.47,26.47,0,0,0,4.43-.58,4.49,4.49,0,0,0-.42-.92,38.2,38.2,0,0,1-3.84.31h-6a4.74,4.74,0,0,0-.18,1.3"/><path class="cls-6" d="M28.91,79a3.08,3.08,0,0,1,.58,1.29.23.23,0,0,0,.25.17h0a.24.24,0,0,0,.17-.27,3.58,3.58,0,0,0-.52-1.26h-.5"/><path class="cls-6" d="M28.27,79a2.65,2.65,0,0,1,.46,1.11.3.3,0,0,0,.23.19h0a.25.25,0,0,0,.2-.29,4.39,4.39,0,0,0-.46-1.15h-.44"/><path class="cls-6" d="M27.63,79.16a3.08,3.08,0,0,1,.28.84.26.26,0,0,0,.25.17h0a.23.23,0,0,0,.18-.26A3.89,3.89,0,0,0,28,79h-.15l-.25.13h0"/><path class="cls-7" d="M31,79.78h0c-2.15-9.07,2.3-17.88,10-19.74a1.38,1.38,0,0,1,.65,2.69c-6.77,1.61-10.89,8.93-9.82,16.86h0v.09a.25.25,0,0,1,0,.17.4.4,0,0,1-.29.2.41.41,0,0,1-.46-.34h0Z"/><path class="cls-8" d="M30.7,78l.17.77h0a.43.43,0,0,0,.48.35.5.5,0,0,0,.29-.2v-.17h0c-1.08-7.92,3-15.34,9.8-16.86a1.34,1.34,0,0,0,1-1,1.57,1.57,0,0,1,.18.42,1.35,1.35,0,0,1-1,1.64h0c-6.75,1.63-10.87,8.94-9.8,16.86h0a.14.14,0,0,0,0,.09h0a.45.45,0,0,1-.35.39.43.43,0,0,1-.48-.35h0c-.14-.59-.25-1.18-.34-1.78"/><path class="cls-7" d="M37,16.71a77.22,77.22,0,0,0-1.14,26,1.34,1.34,0,0,1-2.68,0,86.44,86.44,0,0,1,.13-10.43A78,78,0,0,1,36,16.73Z"/><path class="cls-9" d="M35,43.43a1.34,1.34,0,0,1-1.34-1.34h0a86.41,86.41,0,0,1,.13-10.43,77.35,77.35,0,0,1,2.52-14.95H36a78.34,78.34,0,0,0-2.69,15.56,86.44,86.44,0,0,0-.13,10.43,1.34,1.34,0,0,0,2.61.46,1.32,1.32,0,0,1-.81.27"/><path class="cls-7" d="M38.48,16.16c.1-.15.1-.31,0-.37s-.46.31-.73.41h0c.16-.35.54-.58.62-.94s-.4-1.33-1-1.31C36.18,14,36,15.87,36,17.1a2.59,2.59,0,0,0,2.55-.94"/><path class="cls-8" d="M36.24,16.71a2.06,2.06,0,0,0,2.13-.44,2.59,2.59,0,0,1-2.44.83v-.69a.87.87,0,0,0,.27.3"/><path class="cls-15" d="M73.85,24.94c3.05-7,12-20.42,4.11-22.4-2.48,0-7.68,19.91-4.11,22.4"/><path class="cls-16" d="M74.94,13.78c0,.4-.3,1.59.2,1.92s1-.77,1.11-1.08a4.73,4.73,0,0,0,.27-2.68c-.16-.58-1-1.07-1.58,1.82"/><path class="cls-16" d="M78.42,25.13c-1.44,0-3.11-.13-4.57-.24l.58-1.35a50.58,50.58,0,0,0,3.26-13.15c.13-1.17.21-2.36.27-3.55s0-2.9,0-4.36l1,.1h.52l1.15.15a3.8,3.8,0,0,1,1,.33,2.25,2.25,0,0,1,1.13,2.2h0v.62h0V7.34A25.07,25.07,0,0,1,82.44,11a49.47,49.47,0,0,1-4,14"/><path class="cls-17" d="M78.42,25.13c-1.44,0-3.11-.13-4.57-.24l.58-1.35a3.45,3.45,0,0,0,4.22-1.49,44,44,0,0,0,3-14.94c.07-1.28.11-2.61.11-4a2.23,2.23,0,0,1,1.13,2.2h0V6a50,50,0,0,1-4.45,19.18"/><path class="cls-15" d="M70.49,20.82C72.66,15.87,79,6.3,73.41,4.9,71.64,4.9,67.9,19,70.49,20.82"/><path class="cls-16" d="M71.26,12.92c0,.29-.21,1.13.15,1.38s.71-.56.79-.77a3.32,3.32,0,0,0,.19-1.92c-.11-.42-.71-.76-1.13,1.29"/><path class="cls-16" d="M73.74,21a20.83,20.83,0,0,1-3.25-.17l.41-1a35.82,35.82,0,0,0,2.32-9.34c0-.84.15-1.69.19-2.53s0-2,0-3.09h1.15a5.59,5.59,0,0,1,.82.12,2,2,0,0,1,.73.23,1.57,1.57,0,0,1,.81,1.55h0v.44h0V8.3a18.76,18.76,0,0,1-.25,2.6,35,35,0,0,1-2.86,10"/><path class="cls-17" d="M73.74,21a20.83,20.83,0,0,1-3.25-.17l.41-1a2.48,2.48,0,0,0,3-1.05A31.47,31.47,0,0,0,76,8.18V5.36a1.57,1.57,0,0,1,.8,1.55h0v.46A35.79,35.79,0,0,1,73.68,21"/><path class="cls-9" d="M21.7,21.53c1.13-.61,2.65-1.36,3.84-2.13a6.84,6.84,0,0,1,1.32-.52,4.86,4.86,0,0,1,.81-.52,1.93,1.93,0,0,0,.82-.15,74.39,74.39,0,0,1,36.1-6.69,1.57,1.57,0,0,1,.53,0,1.63,1.63,0,0,0,.54,0,55.85,55.85,0,0,1,6.18.67.79.79,0,0,1,0,.48,2.8,2.8,0,0,1-.21.84A80.17,80.17,0,0,0,26.5,20.15a4.86,4.86,0,0,1-.81.52,27.64,27.64,0,0,0-3.6,1.72Z"/><path class="cls-15" d="M22.18,31.34c-1.28-5.51-2.11-17.5-7.13-15-1.29,1.19,4.14,15.34,7.13,15.1"/><path class="cls-16" d="M18.13,24.37c.14.29.52,1.09.92,1.05s.22-.9.14-1.13a3.6,3.6,0,0,0-1-1.71c-.31-.28-1-.19,0,1.79"/><path class="cls-16" d="M24.71,29.47a25.9,25.9,0,0,1-2.53,1.92,4.13,4.13,0,0,0-.27-1.06,38.82,38.82,0,0,0-3.72-9.22c-.42-.75-.86-1.5-1.34-2.21s-1.17-1.74-1.8-2.57l.39-.22.32-.2.19-.12h0l.67-.42a4.1,4.1,0,0,1,.73-.5c.5-.11.9.08,1.44.85h0c.09.11.17.24.25.36h0a8.51,8.51,0,0,1,.57.9c.48.75.92,1.54,1.34,2.32a40.21,40.21,0,0,1,3.69,10.13"/><path class="cls-17" d="M24.71,29.47a25.9,25.9,0,0,1-2.53,1.92,7.84,7.84,0,0,0-.27-1.06,2.59,2.59,0,0,0,1.63-2.82,34,34,0,0,0-4.6-10.24c-.5-.79-1-1.57-1.59-2.4.5-.11,1,0,1.51.77l.33.48a39,39,0,0,1,5.52,13.35"/><path class="cls-15" d="M18.65,37.47c-1.78-7.67-3-24.73-10-21.23-1.8,1.66,5.76,21.53,10,21.23"/><path class="cls-16" d="M13,27.47c.18.41.71,1.62,1.29,1.56s.29-1.29.21-1.61a5.31,5.31,0,0,0-1.38-2.48c-.44-.38-1.36-.25-.12,2.53"/><path class="cls-9" d="M13.24,27.47c0,.18.35.68.6.66s.1-.51,0-.71a2.38,2.38,0,0,0-.6-1c-.19-.17-.59-.11,0,1.09"/><path class="cls-16" d="M22.22,34.67a41.19,41.19,0,0,1-3.57,2.74c-.11-.5-.23-1-.36-1.48a55.2,55.2,0,0,0-5.24-13c-.59-1.08-1.23-2.11-1.92-3.13a42.14,42.14,0,0,0-2.51-3.6c.27-.22.56-.46.85-.66l.13-.11.29-.17h0l1-.62a3.7,3.7,0,0,1,1-.38c.71-.16,1.39,0,2.13,1.07h0c.14.17.25.37.37.54h0l.86,1.3c.67,1.08,1.29,2.17,1.92,3.3a55.56,55.56,0,0,1,5.18,14.23"/><path class="cls-17" d="M22.22,34.72a41.3,41.3,0,0,1-3.57,2.75c-.11-.5-.23-1-.36-1.48a3.69,3.69,0,0,0,2.3-4,48.7,48.7,0,0,0-6.5-14.35c-.65-1.09-1.42-2.2-2.23-3.35.71-.16,1.38,0,2.13,1.07h0l.37.54a55.43,55.43,0,0,1,7.86,18.8"/></g></g></g></g></svg>