<svg xmlns="http://www.w3.org/2000/svg" viewBox="0 0 99.96 99.96"><defs><style>.cls-1{fill:#fff;}.cls-2,.cls-4{fill:none;stroke-miterlimit:10;}.cls-2{stroke:#26519f;stroke-width:6.36px;}.cls-3{fill:#26519f;}.cls-4{stroke:#fff;stroke-width:2.23px;}.cls-5{fill:#163441;}.cls-6{fill:#0c2933;}.cls-7{fill:#8ea928;}.cls-8{fill:#dfc18c;}.cls-9{fill:#bf2919;}.cls-10{fill:#fbd9a0;}.cls-11{fill:#a3c218;}.cls-12{fill:#94b223;}.cls-13{fill:#ea5039;}.cls-14{fill:#010101;}.cls-15{fill:#112031;}.cls-16{fill:#a72317;}.cls-17{fill:#6c8229;}.cls-18{fill:#7d972a;}.cls-19{fill:#cdeaf9;}.cls-20{fill:#a2d6ef;}.cls-21{fill:#cecccc;}.cls-22{fill:#c1dfee;}</style></defs><g id="Layer_2" data-name="Layer 2"><g id="Layer_1-2" data-name="Layer 1"><g id="Layer_2-2" data-name="Layer 2"><g id="Layer_1-2-2" data-name="Layer 1-2"><path class="cls-1" d="M50,96.78A46.8,46.8,0,1,0,3.18,50h0A46.8,46.8,0,0,0,50,96.78"/><circle class="cls-2" cx="49.98" cy="49.98" r="46.8"/><path class="cls-3" d="M50,89.77A39.79,39.79,0,1,0,10.22,50v0A39.78,39.78,0,0,0,50,89.77"/><circle class="cls-4" cx="49.98" cy="49.98" r="39.79"/><path class="cls-5" d="M75,45.73h0a.32.32,0,0,0,.08-.45A.3.3,0,0,0,75,45.2a.48.48,0,0,0-.37,0h-.19a20.54,20.54,0,0,1-9.61,5.28,15.86,15.86,0,0,0,.1,1.94A21.32,21.32,0,0,0,75,45.73"/><path class="cls-6" d="M64.61,50.6l.46-.12a20.47,20.47,0,0,0,9.11-5.15h0a.37.37,0,0,1,.21,0,.53.53,0,0,1,.35,0,.37.37,0,0,1,0,.52l0,0h0a15.16,15.16,0,0,1-1.27,1.38l.52-.61h0a.33.33,0,0,0,.08-.46.3.3,0,0,0-.08-.08.48.48,0,0,0-.37,0h-.19a21.34,21.34,0,0,1-7.69,4.73l-.86.27h-.25v-.43"/><path class="cls-5" d="M54.54,44.5A13.69,13.69,0,0,0,64.9,52.42c.32-.55.63-1.13.94-1.71a12.53,12.53,0,0,1-8.44-7.09,1.58,1.58,0,0,0-1.92-.83,1.33,1.33,0,0,0-1,1.61l0,.1"/><path class="cls-6" d="M55,43a1.35,1.35,0,0,1,.42-.2,1.56,1.56,0,0,1,1.92.81,12.32,12.32,0,0,0,7.69,6.86l.77.25a.17.17,0,0,0,0,.1L65,51.1h-.25A12.61,12.61,0,0,1,56.31,44a1.45,1.45,0,0,0-1.23-.89"/><path class="cls-5" d="M74.8,43.79c.11-.09.25-.13.3,0s-.15.43-.19.64h0c.29-.19.4-.54.71-.68s1.33,0,1.37.43c.11,1-1.6,1.57-2.48,1.8a1.9,1.9,0,0,1,.29-2.13"/><path class="cls-6" d="M74.8,45.6a1.4,1.4,0,0,1,0-1.69,1.92,1.92,0,0,0-.2,2l.6-.2a.51.51,0,0,1-.31-.13"/><path class="cls-5" d="M75,44.58a.89.89,0,0,1,0-.23c0-.21.34-.46.19-.63s-.21,0-.31,0a1.9,1.9,0,0,0-.3,2.13l.4-.12a1.93,1.93,0,0,1,0-1.21"/><path class="cls-6" d="M74.85,45.64h0a1.43,1.43,0,0,1,0-1.69,1.8,1.8,0,0,0-.21,2l.41-.12V45.7"/><path class="cls-7" d="M47.75,27.41l-1.38,1.42-.23-.44-.44-.6c-.28-.35-.58-.68-.89-1l-.4-.4-.56-.52-.48-.39A9.44,9.44,0,0,0,42,24.66l-.62-.25a8.67,8.67,0,0,0-3.13,0s3.15-1.43,4.67-2.19a10.75,10.75,0,0,1,1.29-.6h.15a2.41,2.41,0,0,1,.38,0h.18a3.32,3.32,0,0,0,0,2.48,3.26,3.26,0,0,0,.15.44,3.68,3.68,0,0,0,.15.35,3.5,3.5,0,0,0,.29.54q.15.24.33.48l.38.46c.2.19.43.38.66.57l.54.37.42.23"/><path class="cls-7" d="M48.62,26.59a12.62,12.62,0,0,0-.77-1.27L47.58,25l-.38-.52-.31-.39A15.56,15.56,0,0,0,45,22.29,19.94,19.94,0,0,0,47.5,21a3.62,3.62,0,0,0,.56,3,3.23,3.23,0,0,0,.85.84l.5.39h0c.86.73-.87,1.34-.87,1.34"/><path class="cls-7" d="M59.13,18.48a5.34,5.34,0,0,1,1.81-2.88,1.92,1.92,0,0,0,.23-1,3.32,3.32,0,0,1-.89,0,2,2,0,0,1-.48,1l-1.09.46a1.65,1.65,0,0,0-.46.23h0l-.71.5-.6,1.3a3,3,0,0,1,.56.66,3.34,3.34,0,0,1,.17.44,4.25,4.25,0,0,1,.31.6l.17.42a8.13,8.13,0,0,1,.39,1.69l1.34-.1A4.74,4.74,0,0,1,59.13,20q0-.3,0-.6a2.67,2.67,0,0,1,0-.4,2.26,2.26,0,0,1,0-.52"/><path class="cls-7" d="M56.11,22.27V22a2.07,2.07,0,0,0-.15-.5,2.42,2.42,0,0,0-.21-.39,4,4,0,0,0-.27-.44,2.38,2.38,0,0,0-.92-.65c-1-.41.63-1.73,1.15-2.08A14.22,14.22,0,0,0,56.48,20l.31.59.17.29a3.48,3.48,0,0,0,.38.48,1.29,1.29,0,0,0,.77.48c1,.16-1.92.33-1.92.33"/><path class="cls-7" d="M52.62,23.71a2,2,0,0,0,.26-1,1.28,1.28,0,0,0,0-.39c0-.12-.07-.28-.07-.4a2.55,2.55,0,0,1-.12-.31,3.51,3.51,0,0,0-1-.94c.33-.4,1.92-2.13,2-.88A6.21,6.21,0,0,0,54,21.52a2.16,2.16,0,0,0,.25.44l.15.2c.12.15.11.19.27.3h.1c.44.29-2,1.17-2.1,1.19"/><path class="cls-7" d="M50.08,25.32a4.86,4.86,0,0,0,0-.54v-.53a2.13,2.13,0,0,0-.14-.73l-.09-.37a2.14,2.14,0,0,1-.06-.35l-.17-.4a5,5,0,0,0-1.31-1.75c-1.63-1.19,1.92-.69,2.34-.56,0,0-.36.14,0,1.75h0a2.1,2.1,0,0,0,.1.51c0,.06.11.24.12.3a4.91,4.91,0,0,0,.28.5,2,2,0,0,0,.76.61c-.69.64-1.16.87-1.85,1.52"/><path class="cls-8" d="M61.26,82.68a44.17,44.17,0,0,0,5-.68c2.62-.46,5.21-1,7.69-1.71a.85.85,0,0,1,.13.25"/><path class="cls-8" d="M74.16,80.54c-1.42.39-2.86.77-4.3,1.12a49.89,49.89,0,0,1-8.75,1.42"/><path class="cls-9" d="M15.71,74.76c.46-2.33.93-4.67,1.54-6.94a35.23,35.23,0,0,1,1.36-4.38,7.06,7.06,0,0,1,2.1,3.11,7.5,7.5,0,0,1,.23,4.17,1.41,1.41,0,0,1-.1.31c0,.13-.11.36-.19.56h0l-.13.28a1.76,1.76,0,0,1-.14.23l-.15.25h0l-.21.27a.54.54,0,0,1-.14.16,1.64,1.64,0,0,1-.21.25h0l-.4.36a6.24,6.24,0,0,1-3.56,1.37"/><path class="cls-10" d="M14,74.64c.5-2.3,1-4.63,1.69-6.86a26.79,26.79,0,0,1,2-5,5.81,5.81,0,0,1,1,.76,36.5,36.5,0,0,0-1.36,4.31c-.62,2.27-1.08,4.61-1.54,6.94a8.89,8.89,0,0,1-1.71-.12"/><path class="cls-10" d="M20.58,71.77a4.38,4.38,0,0,0-1.5-1,.25.25,0,0,1-.17-.31h0a.3.3,0,0,1,.38-.15,5.11,5.11,0,0,1,1.48.9,4.29,4.29,0,0,1-.19.54h0"/><path class="cls-10" d="M20.21,72.4a4.32,4.32,0,0,0-1.33-.81.27.27,0,0,1-.17-.31h0a.32.32,0,0,1,.39-.13,4.75,4.75,0,0,1,1.38.79,1.42,1.42,0,0,1-.14.23l-.15.25h0"/><path class="cls-10" d="M19.66,73a4.52,4.52,0,0,0-1-.52.29.29,0,0,1-.17-.31h0a.32.32,0,0,1,.39-.13,5.28,5.28,0,0,1,1.13.59.43.43,0,0,1-.14.16,1.64,1.64,0,0,1-.21.25h0"/><path class="cls-5" d="M20.09,69.09h0c8.12,4.11,22.63,2.46,27.36-7.34a1.49,1.49,0,0,0-.88-1.9l-.07,0a1.92,1.92,0,0,0-2.3.85c-4.12,8.48-15.49,10.24-23.66,7.69H20.4a.53.53,0,0,0-.25,0,.49.49,0,0,0-.32.29.47.47,0,0,0,.3.6h0Z"/><path class="cls-6" d="M22.31,70l-.95-.36h0A.46.46,0,0,1,21,69s0,0,0,0a.47.47,0,0,1,.3-.27.53.53,0,0,1,.25,0h.23C30,71.26,41.39,69.45,45.48,61a1.81,1.81,0,0,1,1.54-1,2,2,0,0,0-.48-.27,1.92,1.92,0,0,0-2.3.85c-4.12,8.48-15.5,10.24-23.66,7.69h-.49a.51.51,0,0,0-.32.29.46.46,0,0,0,.26.59l.06,0h0a14.51,14.51,0,0,0,2.2.81"/><path class="cls-11" d="M62.65,43.89h0a82.81,82.81,0,0,1-3.06,9.21,1.11,1.11,0,0,1-.13.46l0,.1,0,.09c0,.11-.1.21-.13.31l-.12.29a1.6,1.6,0,0,0-.13.3,1,1,0,0,0-.1.21l-.13.38-.05.21c0,.07,0,.19,0,.25s-.05.1-.06.16l-.1.3-.07.18-.1.19c-.11.21-.15.31-.25.53-.55,1-1.13,2.11-1.73,3.13h0c-.25.42-.52.82-.77,1.19a13.71,13.71,0,0,1-3.69,3.71h0c-5,3.69-12.68,1.19-11.2-5.9a2.93,2.93,0,0,1,.23-.89c.1-.28.17-.51.27-.78s.25-.62.38-.91.37-.73.56-1.11l.4-.64c.16-.27.34-.54.52-.8l.46-.66h0l.1-.13.5-.69c.33-.46.67-.94,1-1.43s.35-.51.52-.78l.36-.56.48-.83c.39-.65.77-1.32,1.1-1.92a20.51,20.51,0,0,0,.21-15.38c-.19-.5-.44-1-.69-1.53s-.5-1-.79-1.48A16.06,16.06,0,0,1,59.92,21.9l.15.35a47.69,47.69,0,0,1,3.5,11v1.77a40.64,40.64,0,0,1-1,8.93"/><path class="cls-12" d="M56.11,60.11c-.29.49-.58,1-.86,1.38a14.17,14.17,0,0,1-3.35,3.6h-.09c-2.81,2-7.17,2.79-9.77,0-3.17-3.48-.76-8.53,1.5-11.69.5-.67,1-1.36,1.44-2,.2-.27.37-.54.54-.81A31.45,31.45,0,0,0,47.62,47a20.23,20.23,0,0,0,.23-15.38,24.76,24.76,0,0,0-1.54-3,17.45,17.45,0,0,1,1.87-2.16,21,21,0,0,1,2.78,6A21.28,21.28,0,0,1,50,46a19.84,19.84,0,0,1-2.82,4.67l-.58.79-.27.35c-2.17,3-4.48,8.34-.58,11.18,3.39,2.48,7.88.18,10.23-2.65h0a2.35,2.35,0,0,1,.19-.25"/><path class="cls-9" d="M74,80.29c-2.58.66-5.17,1.25-7.69,1.71a44.17,44.17,0,0,1-5,.68,7.32,7.32,0,0,1,2.52-2.83A12.2,12.2,0,0,1,68.15,78h2.9l.52.16a4.55,4.55,0,0,1,2.51,2.07"/><path class="cls-10" d="M74.51,81.6c-2.56.61-5.13,1.19-7.69,1.59a33.2,33.2,0,0,1-5.88.58,5.16,5.16,0,0,1,.36-1.09,43.82,43.82,0,0,0,5-.68c2.61-.46,5.32-1.09,7.8-1.75a5.19,5.19,0,0,1,.37,1.35"/><path class="cls-10" d="M68.91,78.15a2.3,2.3,0,0,0-.42,1.32.33.33,0,0,1-.27.25h0a.26.26,0,0,1-.29-.21v0A3.61,3.61,0,0,1,68.35,78H69"/><path class="cls-10" d="M70.07,78.07a2.87,2.87,0,0,0-.37,1.31.32.32,0,0,1-.27.25h0a.28.28,0,0,1-.29-.25h0A4.15,4.15,0,0,1,69.49,78h.63"/><path class="cls-10" d="M71,78.14a3.05,3.05,0,0,0-.21.94.33.33,0,0,1-.25.27h0c-.18,0-.29-.1-.29-.23a3.43,3.43,0,0,1,.23-1.1h.56"/><path class="cls-13" d="M61.4,32.82a1.43,1.43,0,0,1,.73-.33c.27,0,.92,0,.67.35a1.86,1.86,0,0,1-.63.48,2.37,2.37,0,0,1-.85.32c-.11,0-.34,0-.38-.11s.34-.62.46-.71"/><path class="cls-13" d="M54.33,35.51a1.49,1.49,0,0,0-.77.27c-.21.15-.66.61-.18.71a2.13,2.13,0,0,0,.83-.1A2.68,2.68,0,0,0,55,36c.09,0,.27-.23.17-.35a1.89,1.89,0,0,0-.86-.17"/><path class="cls-14" d="M52.48,34.8h-.15a.24.24,0,0,1-.16-.27s.45-1.58,1.44-1.92a2,2,0,0,1,1.73.65.18.18,0,0,1,0,.27l0,0a.22.22,0,0,1-.3,0,1.47,1.47,0,0,0-1.31-.44c-.65.19-1,1.11-1.13,1.44a.34.34,0,0,1-.14.15"/><path class="cls-14" d="M59.71,32.47h-.12a.21.21,0,0,1-.17-.24h0s.42-1.57,1.44-1.92a2,2,0,0,1,1.71.62.2.2,0,0,1,0,.29h0a.23.23,0,0,1-.31,0,1.5,1.5,0,0,0-1.32-.4c-.64.19-1,1.1-1.12,1.42a.21.21,0,0,1-.13.16"/><path class="cls-15" d="M60,34a5,5,0,0,1-.35,1.83,1.8,1.8,0,0,1-2.35,1l-.11,0a2.91,2.91,0,0,1-1.09-.94,14.57,14.57,0,0,1,2.57-1.68A2,2,0,0,1,60,34"/><path class="cls-16" d="M59.59,35.84a1.79,1.79,0,0,1-2.32,1l-.14-.06a2.52,2.52,0,0,1,.41-.56,1.55,1.55,0,0,1,1.73-.54,1.37,1.37,0,0,1,.32.16"/><path class="cls-5" d="M66.63,79.33h0A17.63,17.63,0,0,0,50.71,60.15l-.54,0a1.73,1.73,0,0,0-1.92,1.4,1.56,1.56,0,0,0,1.46,1.65h.12A16.68,16.68,0,0,1,65.55,79.24v.11h0a.17.17,0,0,0,0,.1.3.3,0,0,0,.12.17.48.48,0,0,0,.4.13.53.53,0,0,0,.54-.48h0Z"/><path class="cls-6" d="M66.7,77.33a6,6,0,0,1,0,.85h0a.54.54,0,0,1-.53.48.6.6,0,0,1-.41-.12.45.45,0,0,1-.11-.19h0v-.13A16.69,16.69,0,0,0,49.94,62.13a1.67,1.67,0,0,1-1.46-1,1.34,1.34,0,0,0-.15.48,1.56,1.56,0,0,0,1.46,1.65h.12a16.65,16.65,0,0,1,15.72,16v.12h0a.45.45,0,0,0,.11.19.55.55,0,0,0,.41.11.53.53,0,0,0,.53-.48h0"/><path class="cls-7" d="M60.53,23.32c-5-2.3-13.1,3.58-12.35,9.13-.64-1.3-1.25-2.61-1.93-3.84a16.09,16.09,0,0,1,13.63-6.77c0,.12.62,1.37.65,1.48"/><path class="cls-10" d="M61.34,25.55A7.08,7.08,0,0,0,60,26c-3.85,1.56-9.21,2.81-11.9,6.15-.15.2-.39-.28-.67-.67s-.35-.4-.54-.42h0c-.54-.16-.71-1.58-.29-1.77,2.19-1,4.4-1.92,6.61-2.81,1.23-.5,2.48-1,3.71-1.4s2.42-.92,3.63-1.4a.94.94,0,0,1,.95.86h0a.78.78,0,0,1-.07.93"/><path class="cls-16" d="M61.42,24.61A30.82,30.82,0,0,0,47.08,30.9l-.17.19h0c.19,0,.36.21.54.44a35.8,35.8,0,0,1,14.06-6.8v-.16"/><path class="cls-17" d="M62,13.19a8,8,0,0,1-5.76,3.68c.27,2.19-3,2.92-4.6,3.09a11.67,11.67,0,0,1-3-.12c-.16,2.29-4.1,2.58-5.77,2.43A13.72,13.72,0,0,1,41,22c-2.37,1.92-6.4,2.13-9.32,1.92a19.46,19.46,0,0,1-10-4A16.88,16.88,0,0,0,32.57,25c2.77.25,6.61.13,8.86-1.79a12.36,12.36,0,0,0,1.92.29c1.58.13,5.33-.14,5.48-2.31a11.41,11.41,0,0,0,2.86,0c1.46-.17,4.88-.79,4.63-2.9a6.74,6.74,0,0,0,5.77-5.11"/><path class="cls-18" d="M37.8,18.56c1,3.46-5.31,3.59-7.29,3.4-3.13-.33-7.32-1.92-8.84-4.9.9,3.57,5.94,5.38,9.17,5.76,2.31.25,9.21-.25,7-4.21"/><path class="cls-18" d="M62.15,11.68C61.84,7.16,55.36,4,51.46,3.55a6.48,6.48,0,0,0-2.9.3C46.41,2.68,38.18-.41,37.7,4.3,34.8,3.47,27.09,1.93,26,5.78a5.91,5.91,0,0,0,.57,4.45c-2.78.45-6.44,2.16-6.71,5.37-.48,5.67,8,8.65,12.44,9,2.81.27,6.69.13,9-1.79a13.72,13.72,0,0,0,1.92.31c1.57.12,5.36-.13,5.52-2.34a10.82,10.82,0,0,0,2.9.09c1.46-.15,4.92-.79,4.67-2.92,3.15-.5,6.11-2,5.9-6"/><path class="cls-17" d="M38.4,4.45A3.35,3.35,0,0,1,41.57,1.8a3.45,3.45,0,0,0-3.85,2.5l.6.15"/><path class="cls-17" d="M33.13,24.57c-4.39-.38-12.92-3.36-12.44-9,.25-3.21,3.84-4.92,6.71-5.36a5.79,5.79,0,0,1-.6-4.4c.5-1.7,2.75-2.33,4.44-2.45-1.92,0-4.73.5-5.3,2.48a5.93,5.93,0,0,0,.59,4.46c-2.8.45-6.45,2.16-6.72,5.37C19.35,21.4,28,24.55,32.4,24.9a19.52,19.52,0,0,0,4-.23,12.63,12.63,0,0,1-2.3,0"/><path class="cls-12" d="M21.59,15.83c-.34,4.23,6,6.49,9.27,6.82,2.3.23,9.17-.25,7-4.23a14.65,14.65,0,0,0-8.4-6.57c-2.71-.65-7.56.61-7.83,4"/><path class="cls-12" d="M36.85,18.44a6.78,6.78,0,0,0,5.77,3.62c1.52.11,5-.47,4.4-2.75S42.76,16,40.49,15.87c-1.5,0-4.63.28-3.67,2.57"/><path class="cls-18" d="M41.86,21.53A6,6,0,0,1,37,17.81a3,3,0,0,1-.19-.5,2,2,0,0,0,.09,1.27,6.6,6.6,0,0,0,5.77,3.61c1.46.1,4.84-.63,4.47-2.44-.56,1.62-3,1.79-4.43,1.79"/><path class="cls-12" d="M43.58,14.71c-.13,2.6,3.85,4.12,5.9,4.52s5.44,0,5.86-2.4-2.94-4-4.88-4.35-6.72-.4-6.88,2.25"/><path class="cls-18" d="M55.29,15.75a1.77,1.77,0,0,1,0,.46c-.45,2.48-3.85,2.77-5.87,2.4s-5-1.55-5.76-3.72c0,2.59,3.84,4,5.9,4.38s5.42,0,5.77-2.4a2.64,2.64,0,0,0,0-1.12"/><path class="cls-12" d="M46.14,6.18c-3.44,1.73-1.64,5.28.79,7,3,2.23,9,4.38,12.66,1.88,3.15-2.21-.13-6.8-2.34-8.26a11.83,11.83,0,0,0-11.11-.6"/><path class="cls-17" d="M60,9.74a3.47,3.47,0,0,1-.79,4.49c-3.59,2.52-9.61.35-12.72-1.92A7.61,7.61,0,0,1,44.22,10a6.86,6.86,0,0,0,2.59,3.14C50,15.39,56,17.54,59.59,15c1.81-1.29,1.37-3.65.37-5.3"/><path class="cls-12" d="M29,7C27,10.5,31.2,14.56,34,15.94c3.34,1.68,10.21,3.14,12.8-.55S43.6,7.93,41,6.78C38,5.45,31.13,3.2,29,7.06"/><path class="cls-17" d="M45.37,9.77a3.86,3.86,0,0,1,.54,4.48c-2.6,3.73-9.38,2.25-12.78.56A12.54,12.54,0,0,1,29.57,12a12.17,12.17,0,0,0,4.27,3.73c3.32,1.67,10.18,3.14,12.8-.59,1.27-1.81,0-4-1.27-5.35"/><path class="cls-19" d="M37.57,53.83a.15.15,0,0,1-.18,0l-.4-.54a.15.15,0,0,1,0-.18l.63-.36a.15.15,0,0,1,.2,0l.4.56a.11.11,0,0,1,0,.15l-.65.39"/><path class="cls-19" d="M36.87,55.23h0l-.09,0-.1.07-.44.27L32,58.13A1,1,0,0,1,30.69,58L30,57a.81.81,0,0,1,.29-1.08l.08,0L35.11,53h0a2.08,2.08,0,0,1,.84-.27h.37a1.82,1.82,0,0,1,.75.23,1.76,1.76,0,0,1,.34.33,1.07,1.07,0,0,1,.19.42,1.17,1.17,0,0,1-.61,1.4"/><path class="cls-20" d="M36.53,55.38l-4.31,2.53a7.13,7.13,0,0,1-1.11-1.34l4.57-2.71a2.93,2.93,0,0,0,.85,1.52"/><path class="cls-20" d="M30.88,56.44h0l4.59-2.71-.11-.5L30.76,56h0l.25.38"/><path class="cls-21" d="M38.28,53.5l.21-.12a.11.11,0,0,0,0-.16h0L38,52.56a.14.14,0,0,0-.19,0l-.22.13.64.85"/><path class="cls-22" d="M30,57l.74,1a1,1,0,0,0,1.28.15l-1.65-2.29a.78.78,0,0,0-.4,1L30,57"/><path class="cls-5" d="M34.76,51.9h0a.42.42,0,0,0,.36.48h0a.48.48,0,0,0,.37-.09.51.51,0,0,0,.13-.16h0V52h0a16.7,16.7,0,0,1,5.08-8.94l-1.37-1.52a17.71,17.71,0,0,0-4.61,10.38"/><path class="cls-6" d="M40.74,43l-.29.21a17.86,17.86,0,0,0-4.79,8.68h0V52h0a.32.32,0,0,1-.13.15.48.48,0,0,1-.37,0,.41.41,0,0,1-.38-.45v0h0a9.1,9.1,0,0,1,.27-1.8v.78h0a.43.43,0,0,0,.37.5h0a.49.49,0,0,0,.37-.09.51.51,0,0,0,.13-.16h0v-.11a17,17,0,0,1,3.75-7.59l.58-.62h.27l.3.35"/><path class="cls-5" d="M53,43.6a17.07,17.07,0,0,0-13.67-2,16.76,16.76,0,0,0,.25,1.85A16,16,0,0,1,51.14,45.7a1.62,1.62,0,0,0,2.11-.25,1.22,1.22,0,0,0,0-1.72c-.08-.08,0,0-.06,0"/><path class="cls-6" d="M53.46,45.1c0-.14,0,.19-.13.31a1.69,1.69,0,0,1-2.14.24,16.07,16.07,0,0,0-10.85-2.32l-.83.07.05,0,.58-.62h.27A15.87,15.87,0,0,1,51.94,45a1.48,1.48,0,0,0,1.52.08"/><path class="cls-5" d="M36.07,53.6a.18.18,0,0,1-.23.19c-.1,0-.12-.46-.23-.68h0c-.12.31,0,.68-.22.93s-1.15.55-1.46.19c-.73-.85.41-2.1,1.08-2.73a2.15,2.15,0,0,1,1.06,2.1"/><path class="cls-6" d="M35,51.9a1.76,1.76,0,0,1,1.12,1.52A2.14,2.14,0,0,0,35,51.5l-.4.4a.81.81,0,0,1,.38,0"/><path class="cls-19" d="M36.39,53.31l-.46.52h-.19l-.1-.31c0-.17,0-.18,0-.35a5,5,0,0,1,.4-.4h.36a2.26,2.26,0,0,1,0,.52"/></g></g></g></g></svg>