<svg xmlns="http://www.w3.org/2000/svg" viewBox="0 0 103.89 103.89"><defs><style>.cls-1{fill:#fff;}.cls-2,.cls-4{fill:none;stroke-miterlimit:10;}.cls-2{stroke:#f9c32d;stroke-width:6.61px;}.cls-3{fill:#f9c32d;}.cls-4{stroke:#fff;stroke-width:2.32px;}.cls-5{fill:#bf2919;}.cls-6{fill:#fbd9a0;}.cls-7{fill:#163441;}.cls-8{fill:#0c2933;}.cls-9{fill:#da1f49;}.cls-10{fill:#cb1a44;}.cls-11{fill:#a3c218;}.cls-12{fill:#94b223;}.cls-13{fill:#829c29;}.cls-14{fill:#7b952a;}.cls-15{fill:#112031;}.cls-16{fill:#3c4e5b;}.cls-17{fill:#b91733;}.cls-18{fill:#8c1913;}.cls-19{fill:#bd181b;}.cls-20{fill:#ab1919;}.cls-21{fill:#a11c18;}.cls-22{fill:#e15866;}</style></defs><g id="Layer_2" data-name="Layer 2"><g id="Layer_1-2" data-name="Layer 1"><g id="Layer_2-2" data-name="Layer 2"><g id="Layer_2-3" data-name="Layer 2"><g id="Layer_1-2-2" data-name="Layer 1-2"><path class="cls-1" d="M51.94,100.58A48.64,48.64,0,1,0,3.31,51.94h0a48.63,48.63,0,0,0,48.63,48.64"/><circle class="cls-2" cx="51.94" cy="51.94" r="48.64"/><path class="cls-3" d="M51.94,93.28A41.35,41.35,0,1,0,10.62,51.91v0A41.35,41.35,0,0,0,51.94,93.28"/><circle class="cls-4" cx="51.94" cy="51.94" r="41.35"/><path class="cls-5" d="M75.69,84.88c-2.83.14-5.49.18-7.71.14a42.11,42.11,0,0,1-4.89-.32,7.6,7.6,0,0,1,2.84-2.79,8.75,8.75,0,0,1,4.41-1.18h1.6l.3.1h0l.34.14h.2l.3.16h0l.48.3a5.43,5.43,0,0,1,2,3.09"/><path class="cls-6" d="M75.91,86.52H68.26a29.32,29.32,0,0,1-5.67-.64,7.2,7.2,0,0,1,.5-1.18A42.11,42.11,0,0,0,68,85c2.22,0,4.86,0,7.71-.14A7.18,7.18,0,0,1,76,86.54"/><path class="cls-6" d="M71.36,80.81a4.18,4.18,0,0,0-.72,1.66.29.29,0,0,1-.28.24h0a.3.3,0,0,1-.24-.34,5.05,5.05,0,0,1,.64-1.64h.64"/><path class="cls-6" d="M72.25,80.89a4,4,0,0,0-.56,1.46.34.34,0,0,1-.3.24h0a.3.3,0,0,1-.22-.36,5,5,0,0,1,.54-1.5H72l.3.1h0"/><path class="cls-6" d="M73,81.18a4,4,0,0,0-.34,1.08.32.32,0,0,1-.3.24h0a.27.27,0,0,1-.23-.29.43.43,0,0,1,0,0,4.6,4.6,0,0,1,.4-1.22h.2l.3.16h0"/><path class="cls-7" d="M68.76,81.91h0C71.34,70.22,65.43,59,55.54,56.82a1.76,1.76,0,0,0-2.11,1.31v0a1.77,1.77,0,0,0,1.34,2.09c8.71,2,14.18,11.25,13,21.42h0v.24h0V82a.41.41,0,0,0,0,.22.53.53,0,0,0,.72.17.52.52,0,0,0,.24-.37h0Z"/><path class="cls-8" d="M69.14,79.57,69,80.63h0a.52.52,0,0,1-.57.46h0a.63.63,0,0,1-.36-.24,1,1,0,0,1,0-.24v-.12h0v-.12h0c1.2-10.17-4.25-19.48-13-21.41a1.82,1.82,0,0,1-1.34-1.32,2.55,2.55,0,0,0-.22.54,1.77,1.77,0,0,0,1.34,2.09c8.73,2,14.18,11.25,13,21.42h0v.22a1,1,0,0,0,0,.24.63.63,0,0,0,.36.24.53.53,0,0,0,.6-.43v0h0a15.7,15.7,0,0,0,.31-2"/><path class="cls-7" d="M68.08,44.37v-.16a30.39,30.39,0,0,1,16.26-1h0a.66.66,0,1,1,0,1.31H84a27.25,27.25,0,0,0-17.21,3.74c.44-1.28.81-2.56,1.17-3.86"/><path class="cls-8" d="M67.37,46.81a27.88,27.88,0,0,1,15.08-2.56h.32a.44.44,0,0,0,.28-.1.59.59,0,0,0,.29-.46.63.63,0,0,0-.52-.73h0l-1.24-.22c1,.12,2,.26,2.87.46h0a.65.65,0,0,1,.56.73.59.59,0,0,1-.28.46.79.79,0,0,1-.3.12h-.3a27.37,27.37,0,0,0-17.19,3.7c.16-.46.32-.92.46-1.38"/><path class="cls-9" d="M42.82,62.39h0v.12l.3.48.18.28h0c7.71,12,17.75.74,18,.52h0a39.53,39.53,0,0,0,5.46-8.85h0a39.61,39.61,0,0,0,3.45-14.6,18,18,0,0,0-4.87-13h0A19.71,19.71,0,0,0,51.94,21.2,16.06,16.06,0,0,0,44,23a15.58,15.58,0,0,0-3.19,2.22A15,15,0,0,0,39,27a14.32,14.32,0,0,0-3.1,8.27A47.65,47.65,0,0,0,42.69,62.2"/><path class="cls-10" d="M42.68,62.26l.15.33.29.48.18.28c7.71,12,17.76.75,18,.53h0a40.39,40.39,0,0,0,5.48-9,39.24,39.24,0,0,1-6.84,7.82c-5,4-13.08-2.1-16-9.07-3.71-9.27-4-23.27,4.46-27.23,7.77-3.59,18.38,2.72,18.38,2.72h0a19.44,19.44,0,0,0-14.91-8,15.11,15.11,0,0,0-16,14.08,48,48,0,0,0,6.79,27"/><path class="cls-11" d="M45.61,2.43c12.59,2,9.57,11.16,7.69,16.88A4.46,4.46,0,0,0,53,22s-.1.16-.06.18h0a.4.4,0,0,0-.1.18l-.68.12-.22,0v-.58c0-5-1.35-17.54-10.72-11.62C36,13.55,32.69,13.63,30.79,13a4.07,4.07,0,0,1-2.2-1.55c5.64,2,6.8-1.1,8.37-4.26,1.42-2.82,3.14-5.63,8.65-4.75"/><path class="cls-12" d="M44.65,7.52c9.17-5.15,7.65,10.59,7.81,14.16a.54.54,0,0,1,0,.18h-.52c0-5.09-1.35-17.44-10.66-11.56C36,13.55,32.69,13.63,30.79,13c5.55.86,8.65-2.55,13.86-5.47"/><path class="cls-13" d="M51.64,22.2c0,.16.08.26.08.34a3.13,3.13,0,0,0,1.22,0v-.22a5.69,5.69,0,0,0,.12-1v-.12c.1-.32-1.28-.36-1.42-.2s0,.12,0,.24a8,8,0,0,0,0,1"/><path class="cls-14" d="M51.65,21.22a1.5,1.5,0,0,1,1.42.08v-.12c.1-.32-1.28-.36-1.42-.2s0,.12,0,.24"/><path class="cls-14" d="M51.62,22.46c0,.16.1.13.18.14a3.6,3.6,0,0,0,1.14-.06v-.22a2.08,2.08,0,0,1-1.3-.12"/><path class="cls-15" d="M55,37.93a2.23,2.23,0,0,0,.9,2,1.74,1.74,0,0,0,2,0,1.88,1.88,0,0,0-.82-3.4A1.81,1.81,0,0,0,55,37.75"/><path class="cls-16" d="M58.36,38.3A1.55,1.55,0,0,1,57,40h-.13a1.15,1.15,0,0,1-.76-.26,1.85,1.85,0,0,1-.54-.64,5.15,5.15,0,0,1,2.8-.8"/><path class="cls-1" d="M57,37.12a.75.75,0,0,0-.3.78.61.61,0,0,0,.68.4c.7-.14.64-.82.2-1.16a.42.42,0,0,0-.51,0"/><path class="cls-1" d="M57.94,38.38c-.18,0-.4,0-.38.26s.18.44.4.42.44-.68,0-.68"/><path class="cls-15" d="M63.65,37.54a2.16,2.16,0,0,0,.84,2,1.74,1.74,0,0,0,2,0,2,2,0,0,0,.11-2.82,2,2,0,0,0-.95-.58,1.84,1.84,0,0,0-2,1.44"/><path class="cls-16" d="M67,37.8a1.5,1.5,0,0,1-1.31,1.67h-.09a1.21,1.21,0,0,1-.76-.26,1.92,1.92,0,0,1-.54-.66A5,5,0,0,1,67,37.8"/><path class="cls-1" d="M65.57,36.58a.8.8,0,0,0-.32.82.61.61,0,0,0,.7.42c.72-.16.66-.86.2-1.2a.56.56,0,0,0-.58,0"/><path class="cls-1" d="M66.47,38c-.16,0-.36,0-.34.24s.16.4.36.38.4-.62,0-.62"/><path class="cls-15" d="M64.31,41.26a5.41,5.41,0,0,1-.92,2.2c-1.16,1.43-2.86.73-4,0a8.2,8.2,0,0,1-1-.8,46,46,0,0,1,5.89-1.44"/><path class="cls-17" d="M63.39,43.46c-1.16,1.43-2.86.73-4,0A3.59,3.59,0,0,1,60,43a2.4,2.4,0,0,1,3.36.42"/><path class="cls-10" d="M56.88,41.1a1.57,1.57,0,0,0-1,0c-.3,0-1,.4-.58.78a2,2,0,0,0,.92.32,2.7,2.7,0,0,0,1.06,0c.16,0,.42-.14.38-.34s-.64-.68-.82-.76"/><path class="cls-10" d="M66.11,40.48a1.32,1.32,0,0,1,.88-.06c.28,0,1,.32.59.74a1.64,1.64,0,0,1-.81.38,2.22,2.22,0,0,1-1,0c-.14,0-.4-.1-.38-.3s.54-.66.68-.76"/><path class="cls-7" d="M47.53,48.29h0a.54.54,0,0,0,0-.76l0,0a.55.55,0,0,0-.44-.14.57.57,0,0,0-.26,0h0l-.1.1a24.56,24.56,0,0,1-12.58,5.85c0,.86.1,1.7.12,2.56a26.5,26.5,0,0,0,13.3-7.71"/><path class="cls-8" d="M34,53.48l.58-.1a24.72,24.72,0,0,0,12-5.77h.12a.33.33,0,0,1,.24,0,.54.54,0,0,1,.47.89l0,0h0a9.49,9.49,0,0,1-1,.84h0c.21-.18.18-.38,0-.59l-.06-.05a.51.51,0,0,0-.44-.16.39.39,0,0,0-.26,0h0a25,25,0,0,1-10.18,5.37l-1.08.24L34,54.06v-.58"/><path class="cls-7" d="M39.78,40.78A16.6,16.6,0,0,0,32,54.32c.76.26,1.54.48,2.3.72A15.37,15.37,0,0,1,41.5,44a1.77,1.77,0,0,0,.58-2.37c-.44-.83-1.24-1.34-2.07-.9"/><path class="cls-8" d="M34,54.26c-.16,0-.16-.12-.18-.24a1,1,0,0,1,0-.24,15.32,15.32,0,0,1,7.13-11.14A1.67,1.67,0,0,0,41.68,41a1.68,1.68,0,0,1,.4.44,1.73,1.73,0,0,1-.58,2.37,15.18,15.18,0,0,0-7,10.31l-.6.12"/><path class="cls-7" d="M34.33,55.86s-2.57.64-2.35-1.6c.18-1.66.9-.24,1.54.4.22.22.94,0,.94,0Z"/><path class="cls-18" d="M49.65,41a3.05,3.05,0,0,0-1,3.37c.7,2.12,3.25-.44,3.25-.44Z"/><path class="cls-19" d="M45,47a8.87,8.87,0,0,0,2.18,3.16l.14.07A1.74,1.74,0,0,0,48.67,49h0a2.48,2.48,0,0,0-.74-1.18c-.27-.29-.56-.57-.86-.84h0a5.27,5.27,0,0,0-.82-.58,1,1,0,0,0-.5-.14,1.2,1.2,0,0,0-.52.28A.71.71,0,0,0,45,47"/><path class="cls-19" d="M46.29,46.77h0l.36.34a18,18,0,0,1,1.7,1.9h.28a13.85,13.85,0,0,0,2.5-.76,7.32,7.32,0,0,0,3.81-2.82c.84-1.89-2.12-5.27-4.27-5a1.09,1.09,0,0,0-.44.1,1,1,0,0,0-.62.48c1.08,1.7-1.22,3.27-2.76,4.73l-.36.36s-.1.1-.18.2h-.1a.82.82,0,0,0,.1.3"/><path class="cls-20" d="M45.23,46.53a1.53,1.53,0,0,1,1.1.28,2.9,2.9,0,0,1,.36.34c1.5,1.64,1.34,2.46.8,2.7a.29.29,0,0,0-.14.38A1.58,1.58,0,0,0,48.67,49a14.61,14.61,0,0,0,2.65-.85s-2.39,1-3.17.25c-.26-.24-1.65-1.22-1.23-2.22l-.39-.1a1.24,1.24,0,0,1-.28.28,1,1,0,0,0-.5-.14,1.2,1.2,0,0,0-.52.28"/><path class="cls-20" d="M46.32,46.28l.16.12a9.07,9.07,0,0,0,4-3.12,2.57,2.57,0,0,0,.2-2.88,1.23,1.23,0,0,0-.43.1,1,1,0,0,0-.62.48c1.07,1.7-1.24,3.28-2.76,4.76l-.36.34s-.1.1-.18.2"/><path class="cls-20" d="M48.51,43.26a.67.67,0,0,1,0,.2v.25c.18.6,1.36-2,1.4-1.55s.7-.92.7-.92L50,40.7a3.08,3.08,0,0,0-.74.7l-.14.18a3.36,3.36,0,0,0-.58,1.68"/><path class="cls-20" d="M48.25,44.51c-.34.12.14-1.31.64-1.81s.22-1.9-.46-1.54-2.92,4.35-2.18,5.23c.3.34,1.58-1,1.58-1Z"/><path class="cls-21" d="M48.51,43.26a.67.67,0,0,1,0,.2v.25l.52-.85a1.56,1.56,0,0,0,.2-1.46l-.14.18a1.22,1.22,0,0,1-.2,1.12,2.21,2.21,0,0,0-.38.56"/><path class="cls-19" d="M49.75,44.27s-2,1.74-2,.62,1.08-2.23,1.08-2.93S48,41.28,47,44.19a4.64,4.64,0,0,0,0,2.16c.26.92,3.1-1.52,2.92-2"/><path class="cls-18" d="M89.1,48a3,3,0,0,1-2.68-2.24c-.61-2.15,2.9-1.44,2.9-1.44Z"/><path class="cls-19" d="M81.83,45.69a7.42,7.42,0,0,1,0-3.83A.55.55,0,0,1,82,41.7a1.53,1.53,0,0,1,1.81.28h0a2.39,2.39,0,0,1,0,1.4,5.93,5.93,0,0,1-.24,1.17h0a5,5,0,0,1-.33.94c-.09.17-.07.46-.22.56a1.78,1.78,0,0,1-.69,0,.67.67,0,0,1-.49-.28"/><path class="cls-19" d="M83.17,45.13h0v-.5a13.28,13.28,0,0,0,.33-2.51l.4-.16a12.1,12.1,0,0,1,2.48-.78,7.27,7.27,0,0,1,4.76.2c1.73,1.08,1.19,5.55-.72,6.55l-.44.16a1.47,1.47,0,0,1-.78,0c0-2-2.86-2-4.94-2.4h-1c-.11,0,0-.32,0-.32"/><path class="cls-20" d="M82.41,46a1.53,1.53,0,0,0,.76-.84,2.09,2.09,0,0,0,0-.5c.33-2.19-.26-2.79-.84-2.67-.18,0-.28,0-.32-.24A1.55,1.55,0,0,1,83.9,42a12.1,12.1,0,0,1,2.48-.78S84,41.7,83.8,42.76c0,.32-.46,2.29.46,2.89h-.88a1,1,0,0,1-.35.4,1.42,1.42,0,0,1-.58,0"/><path class="cls-20" d="M83.46,45.49v-.2a9.09,9.09,0,0,1,5.06.34A2.66,2.66,0,0,1,90.38,48l-.42.16a1.36,1.36,0,0,1-.8,0c0-2-2.86-2-4.94-2.38h-.76"/><path class="cls-20" d="M87,46.81l-.12-.18a.64.64,0,0,1-.14-.22c-.18-.58,2.28.94,2,.52s1.1.36,1.1.36l-.25.88a3.15,3.15,0,0,1-1-.22h-.22a3.61,3.61,0,0,1-1.42-1.06"/><path class="cls-20" d="M86,46c-.36,0,.86,1,1.56,1.14s1.24,1.46.48,1.54-4.87-2-4.74-3.12c0-.44,1.86,0,1.86,0Z"/><path class="cls-21" d="M87,46.81l-.12-.18a.64.64,0,0,1-.14-.22l.92.44a1.46,1.46,0,0,1,1,1.1h-.22a1.21,1.21,0,0,0-.78-.82,3.51,3.51,0,0,1-.64-.24"/><path class="cls-19" d="M87.42,45.27s-2.72-.28-2,.62,2.14,1.26,2.54,1.82-.36,1.06-2.82-.8a4.7,4.7,0,0,1-1.3-1.72c-.3-.92,3.44-.48,3.6,0"/><path class="cls-5" d="M32.05,86.1c-1.34-2.44-2.44-4.67-3.36-6.63A41.3,41.3,0,0,1,26.92,75a7.32,7.32,0,0,1,3.63,1.33,8.69,8.69,0,0,1,2.9,3.38l.12.3c0,.2.16.4.22.6h0l.1.34a1.13,1.13,0,0,1,0,.26v.3h0v.36a.67.67,0,0,0,0,.2v.34h0V83a5.46,5.46,0,0,1-1.84,3.11"/><path class="cls-6" d="M30.75,87.06c-1.28-2.44-2.38-4.75-3.23-6.73A30.27,30.27,0,0,1,25.64,75a4.57,4.57,0,0,1,1.28,0,41.3,41.3,0,0,0,1.77,4.43c.92,2,2,4.14,3.42,6.58a8.21,8.21,0,0,1-1.36,1.07"/><path class="cls-6" d="M33.79,80.67a4,4,0,0,0-1.76,0,.31.31,0,0,1-.34-.16h0a.27.27,0,0,1,.18-.35h0a4.43,4.43,0,0,1,1.7-.14c0,.2.16.4.22.6h0"/><path class="cls-6" d="M34,81.59a3.89,3.89,0,0,0-1.52.12.31.31,0,0,1-.34-.16h0a.3.3,0,0,1,.2-.36,4.67,4.67,0,0,1,1.58-.14,1.13,1.13,0,0,1,0,.26v.3h0"/><path class="cls-6" d="M33.89,82.53a3.63,3.63,0,0,0-1.09.14.31.31,0,0,1-.34-.16h0a.29.29,0,0,1,.17-.36h0a4.26,4.26,0,0,1,1.23-.24.67.67,0,0,0,0,.2v.34h0"/><path class="cls-7" d="M31.83,78.79h0c11.37-2.7,18.6-12.6,16.34-22.23a1.72,1.72,0,1,0-3.36.78h0c2,8.49-3.87,17.24-13.32,20.51h-.14a.55.55,0,0,0-.16.18.51.51,0,0,0,0,.42.52.52,0,0,0,.64.34Z"/><path class="cls-8" d="M34,78.18l-.94.29h0a.54.54,0,0,1-.66-.34.56.56,0,0,1,0-.44.46.46,0,0,1,.18-.16h0l.05,0,.14,0C42.21,74.22,48,65.55,46,57a1.87,1.87,0,0,1,.6-1.81,1.24,1.24,0,0,0-.56.07,1.75,1.75,0,0,0-1.28,2c2,8.49-3.75,17.13-13.2,20.41l-.13.05-.11,0h0a.55.55,0,0,0-.16.18.45.45,0,0,0,0,.42.52.52,0,0,0,.64.34h0a11.11,11.11,0,0,0,1.46-.34"/><path class="cls-22" d="M64.77,28.09l.56-.7c-.68-.72-2.18-2-2.18-2l0,0h0a17.84,17.84,0,0,0-2.42-1.61l-.2-.12a21.92,21.92,0,0,0-3.19-1.47,19.13,19.13,0,0,0-4.24-.94,4.83,4.83,0,0,1-.12.92,1.25,1.25,0,0,1,.72.22.27.27,0,0,1-.24.4,2.62,2.62,0,0,1-.88.14,3,3,0,0,1-1.11-.22c-.26-.12-.52-.36-.26-.52a1.14,1.14,0,0,1,.48-.2,6.17,6.17,0,0,1,0-.86h-.44a16,16,0,0,0-5.88,1.12c-.46.18-.92.4-1.37.63h0l0,0h0a16.56,16.56,0,0,0-2.5,1.64l-.62.56a14.93,14.93,0,0,0-1.67,1.79q3.15,1.21,5.79,2.18h0c1.23.46,2.41.85,3.48,1.19h0a29.19,29.19,0,0,0,8.43,1.65,9.73,9.73,0,0,0,7.75-3.57Zm-5-3.93,0,0Z"/></g></g></g></g></g></svg>