<svg xmlns="http://www.w3.org/2000/svg" xmlns:xlink="http://www.w3.org/1999/xlink" viewBox="0 0 100.8 100.8"><defs><style>.cls-1,.cls-3,.cls-5{fill:none;}.cls-2{fill:#fff;}.cls-3{stroke:#32b7bb;stroke-width:6.42px;}.cls-3,.cls-5{stroke-miterlimit:10;}.cls-4{fill:#32b7bb;}.cls-5{stroke:#fff;stroke-width:2.25px;}.cls-6{fill:#163441;}.cls-7{fill:#0c2933;}.cls-8{fill:#3a4e5d;}.cls-9{fill:#010101;}.cls-10{clip-path:url(#clip-path);}.cls-11{fill:#62727e;}.cls-12{fill:#cf181a;}.cls-13{fill:#b81b1b;}.cls-14{fill:#ad191a;}.cls-15{fill:#afcc46;}.cls-16{fill:#89a82f;}.cls-17{fill:#112031;}.cls-18{fill:#3c4e5b;}.cls-19{fill:#0c2630;}.cls-20{fill:#a72418;}</style><clipPath id="clip-path"><path class="cls-1" d="M31.39,67.61c-.23,0,0,.6,0,.72a.48.48,0,0,0,.17,0,.35.35,0,0,0,.31-.38h0a.71.71,0,0,0-.29-.39h-.27Z"/></clipPath></defs><g id="Layer_2" data-name="Layer 2"><g id="Layer_1-2" data-name="Layer 1"><g id="Layer_2-2" data-name="Layer 2"><g id="Layer_1-2-2" data-name="Layer 1-2"><path class="cls-2" d="M50.4,97.59A47.19,47.19,0,1,0,3.21,50.4h0A47.19,47.19,0,0,0,50.4,97.59"/><circle class="cls-3" cx="50.4" cy="50.4" r="47.19"/><path class="cls-4" d="M50.37,90.54A40.12,40.12,0,1,0,10.27,50.4v0a40.13,40.13,0,0,0,40.1,40.12"/><circle class="cls-5" cx="50.4" cy="50.4" r="40.12"/><path class="cls-6" d="M53.52,32.4c-2.58-2.27-3.66-8.71-3.66-8.71h0a1.55,1.55,0,1,0-3.08.37,1.77,1.77,0,0,0,0,.2h0S48.5,32,52.28,34.2A168.16,168.16,0,0,0,68.1,40.81l.67-1.4s-12.67-4.75-15.25-7"/><path class="cls-7" d="M53.15,34.2c-3.87-2.19-5.44-9.94-5.44-9.94h0a1.65,1.65,0,0,1,1.1-1.83h-.27a1.57,1.57,0,0,0-1.72,1.4,1.62,1.62,0,0,0,0,.54h0s1.69,7.75,5.47,9.94a165.37,165.37,0,0,0,15.81,6.61l.14-.27a152.09,152.09,0,0,1-15.08-6.34"/><path class="cls-6" d="M69.78,39c.2,0,.29.15.25.27s-.58.11-.83.23h0c.37.13.83,0,1.14.27a1.2,1.2,0,0,1,.26,1.65c-1,.85-2.52-.41-3.41-1.26A2.68,2.68,0,0,1,69.78,39"/><path class="cls-7" d="M67.54,40.3a2.18,2.18,0,0,1,1.94-1.24,2.71,2.71,0,0,0-2.42,1.19l.54.48a.79.79,0,0,1,0-.43"/><path class="cls-6" d="M48.62,70.87l.46.15a7,7,0,0,0,1.84-1.32c.18-.34-.25-1.29,0-1.53h0c.43-.38,1.85-1.33,1.85-1.33l-.43-.24A8.21,8.21,0,0,0,50.4,68c-.19.31.12,1.14,0,1.47a7,7,0,0,1-1.94,1.38"/><path class="cls-8" d="M51,67.84c1.18.8,2.81-.4,3.37-1s-.5-1.55-1.55-1.24S50,67.19,51,67.84"/><path class="cls-6" d="M54.37,66.56c-.58.55-2.19,1.77-3.37,1a.61.61,0,0,1-.26-.31.52.52,0,0,0,.26.62c1.18.8,2.79-.4,3.37-1a.5.5,0,0,0,.13-.52.57.57,0,0,1-.13.21"/><path class="cls-6" d="M53.25,65.09c3.88-7.11,9.34-15,5.52-18.1-4.16-3.29-13.56-6.4-13.56-6.4h0a2.34,2.34,0,0,0-.49.45,1.54,1.54,0,0,0,.41,2.15,8.25,8.25,0,0,1,.81.62C47.88,45.11,55.21,47.4,57,49s-5.52,16-5.52,16h0a.79.79,0,0,0,.29,1,.72.72,0,0,0,.21.12s2.93,1.68,4,1.06-.21-1.51-1.3-1.57-1.5-.05-1.47-.48"/><path class="cls-7" d="M52.57,66l-.31-.19a.64.64,0,0,1-.21-.89h0s7.32-14.36,5.52-16-9.11-3.88-11-5.21a7,7,0,0,0-.81-.62,1.56,1.56,0,0,1-.39-2.16h0l-.25-.15a1.87,1.87,0,0,0-.48.45,1.55,1.55,0,0,0,.4,2.15,7.05,7.05,0,0,1,.82.62c1.94,1.3,9.26,3.58,11,5.21s-5.52,16-5.52,16h0a.81.81,0,0,0,.29,1,.57.57,0,0,0,.22.11s2.92,1.69,4,1.07l.29-.25A9.27,9.27,0,0,1,52.57,66"/><polygon class="cls-8" points="64.05 53.75 42.18 51.72 42.3 53.04 63.83 55.21 64.05 53.75"/><polygon class="cls-6" points="63.83 54.84 42.3 52.69 42.2 51.72 42.18 51.72 42.3 53.04 63.83 55.21 64.05 53.75 63.99 53.75 63.83 54.84"/><polygon class="cls-8" points="63.37 56.12 48.83 70.09 49.66 71.1 63.83 57.55 63.37 56.12"/><polygon class="cls-6" points="63.5 56.58 63.33 56.12 48.81 70.09 49.1 70.46 63.5 56.58"/><polygon class="cls-8" points="42.49 51.76 30.21 68.06 31.27 68.95 42.94 53.19 42.49 51.76"/><polygon class="cls-6" points="42.73 52.18 42.59 51.72 30.3 68.02 30.59 68.27 42.73 52.18"/><polygon class="cls-8" points="40.38 47.03 48.02 69.86 49.26 69.36 41.58 46.47 40.38 47.03"/><polygon class="cls-6" points="40.77 46.91 41.58 46.52 41.56 46.47 40.36 47.03 48 69.86 48.38 69.7 40.77 46.91"/><polygon class="cls-8" points="30.63 67.59 48.25 69.9 47.86 71.2 30.55 68.83 30.63 67.59"/><polygon class="cls-6" points="30.24 68.39 30.32 67.53 30.2 67.52 30.11 68.74 47.41 71.1 47.53 70.75 30.24 68.39"/><path class="cls-9" d="M42.82,67v.16h-2l-8.51,1h-.66l.66.11,8,1.57h.23l1.63.33v.14L40.57,70h-.23l-8-1.55-.66-.12.5.27h.12L39,72.22h.12l1.44.78-.1.14L39,72.36h0l-.08.1-.17-.1h0l-6.67-3.62-.25-.14-.39-.21.24.25.27.27,4.9,5.14.31.33.66.67.49.51h-.12l-.41,0-.7-.74-.29-.39L32,69.36,31.62,69l-.17-.2.09.22.22.44,3,6.13.23.46.6,1.24v.14h-.13v-.16L34.9,76.2l-.22-.45-3-6.24L31.39,69v.54h0l1,6.86v.45l.15,1.1v.25H32.4V78l-.16-1.08v-.43l-1-6.88h0V69h0v.58l-1.1,6.78v.43l-.14.89V78h-.15v-.41l.13-.87v-.43h0l1.11-6.78.1-.6v0l-.28.54L27.61,75.6l-.27.48-.24.47-.09.21-.18.33h0v.1H26.7l.17-.31.33-.68.27-.53,3-5.93.27-.56.09-.17-.13.11-.49.45-4.82,4.09-.56.52-.53.47-.27.23L24,75h0v-.12h0l.12-.12.27-.23.51-.46.58-.53,4.82-4.34.49-.44h0l-.58.27L24,71.72l-.69.33-.66.29-.31.16h-.16a.33.33,0,0,0,0-.14h.14l.31-.16.68-.29h0L24,71.6l6.09-2.77.58-.25H29.9L23,69.39H21a.38.38,0,0,1,0-.15h.46l.8-.1H23l7-.83h.64l-.62-.12-7.11-1.37-.64-.14-1-.19h-.37a.43.43,0,0,1,0-.16h.35l1,.2.66.13L30,68l.59.11h0L30,67.84,23.52,64.3,23,64l-1.11-.6h-.13a.33.33,0,0,1,0-.14h.13l1.13.6.52.29,6.57,3.72.43.24.19.11L30.52,68h0l-.28-.29L25,62l-.23-.25-1.09-1.15h0l.12-.11h0l1.11,1.16h0l.19.21,5.27,5.53.2.19.27.27-.24-.46V67.3l-3.43-6.9h0v-.1l-.35-.69-.36-.78h.13l.43.85.29.62v.1h0l3.45,7,.29.42-.1-.64-1.14-7.75h0v-.23l-.23-1.59h.15l.23,1.61v.21h0l1.15,7.75.09.64.12-.64,1.32-8.1h0v-.31L33,57.18h0l-.25,1.61v.31h0l-1.32,8.12v.39h0v.23h0l.15-.29.12-.27,4-7.85h0l.2-.39.36-.71v-.14h.14v.1L36,59l-.19.38h0l-4,7.89-.11.2-.23.44.38-.35.16-.13,6.76-5.95h0l.39-.35.58-.53.25-.23.39-.35v.12L40,60.5l-.25.23-.58.52-.39.35h0L32,67.69l-.14.15-.33.29.39-.17.19-.1,8.18-3.7h0l.41-.19.76-.33.31-.14.44-.21v.15l-.44.2-.31.13-.76.35-.43.2h0L32.18,68l-.23.12h0l-.35.15h.64l8.47-1.08H42.2Z"/><path class="cls-6" d="M39.72,71.72l-.27.52-.14.27h0l-.25.51c-.19.37-.38.79-.6,1.24a5.77,5.77,0,0,0-.27.56c-.29.58-.58,1.18-.85,1.76v.14h0a10.77,10.77,0,0,1-3.88,1.4h-.87a10.16,10.16,0,0,1-4.79-.59h-.09a3.2,3.2,0,0,1-.62-.29,10.78,10.78,0,0,1-3.28-2.52l-.19-.21-.2-.23L23.27,74v-.12l-.1-.14v-.13a1.91,1.91,0,0,0-.15-.21l-.24-.35a10.93,10.93,0,0,1-.6-1l-.31-.31a10.29,10.29,0,0,1-.87-6,3.82,3.82,0,0,1,.15-.68,5.53,5.53,0,0,1,.24-.79,9.46,9.46,0,0,1,3.87-4.85l1.59.18.86.09h.42l-.37.24-.31.21a.26.26,0,0,0-.13.1l-.27.19A8.46,8.46,0,0,0,22.92,66a3.24,3.24,0,0,0-.12.62,7.25,7.25,0,0,0,1,4.71l.18.31A11.81,11.81,0,0,0,25.4,73.6a9.22,9.22,0,0,0,2.09,1.8l.66.37a6.9,6.9,0,0,0,3.76.72l.85-.14a11.22,11.22,0,0,0,4.38-2.15l.55-.44a14.9,14.9,0,0,0,1.93-2.12"/><path class="cls-9" d="M39,75.36l.18-.15Z"/><path class="cls-8" d="M32.16,68.89a.66.66,0,0,1-.52.62,1.26,1.26,0,0,1-1.59-.46,1.1,1.1,0,0,1,.26-1.52,1.26,1.26,0,0,1,.26-.13h.18a1.18,1.18,0,0,1,1.43.86,1.12,1.12,0,0,1,0,.63"/><path class="cls-6" d="M32.19,68.82a.89.89,0,0,1-.6.72A1.27,1.27,0,0,1,30,69.07a1.11,1.11,0,0,1,.53-1.65h0s-.88,2.41,1.55,1.46h0"/><g class="cls-10"><rect class="cls-11" x="30.57" y="74.03" width="0.93" height="0.91"/></g><path class="cls-8" d="M27.82,76.56l-.53-.26h0a2.69,2.69,0,0,1-.14.54v.25l.28.14h.14l.29.14.18-.81h0m-4.92-4.43c0-.1-.1-.2-.16-.28h0l-.77.14h0v.28h0Zm4.78,4.43-.53-.26h0a2.69,2.69,0,0,1-.14.54v.25l.28.14h.14l.29.14.18-.81h0m-5-4.43c0-.1-.1-.2-.16-.28h0l-.77.14h0v.28h0Zm4.78,4.43-.53-.26h0a2.69,2.69,0,0,1-.14.54v.25l.28.14h.14l.29.14.18-.81h0m-5-4.43c0-.1-.1-.2-.16-.28h0l-.77.14h0v.28h0Zm4.78,4.43-.53-.26h0a2.69,2.69,0,0,1-.14.54v.25l.28.14h.14l.29.14.18-.81h0m-5-4.43c0-.1-.1-.2-.16-.28h0l-.77.14h0v.28h0Zm11.79,4.13a5.84,5.84,0,0,1-1.77.74l-.46.14-.4,0H32a7.36,7.36,0,0,1-1.15,0,8,8,0,0,1-1-.12h-.22a8.81,8.81,0,0,1-1.79-.55h0l-.53-.26h0A10.3,10.3,0,0,1,25,74.43l-.12-.12a10.37,10.37,0,0,1-1.51-2s-.07-.14-.07-.19h0c0-.08,0-.15-.09-.23h0a9.23,9.23,0,0,1-.75-2.1v-.16a8.74,8.74,0,0,1-.12-2.7.43.43,0,0,0,0-.16h0l.12-.65a2.53,2.53,0,0,1,.21-.76,6.35,6.35,0,0,1,.41-1s.09-.17.09-.22A7.76,7.76,0,0,1,24.65,62l.19-.22.27-.35h0a12.89,12.89,0,0,1,1.33-.83l.35-.2.2-.1h.16l.3-.12a12.34,12.34,0,0,1,2.12-.65h.16a13.31,13.31,0,0,1,2.74-.32H34.1a6.7,6.7,0,0,1,1.47.28h.16A6.64,6.64,0,0,1,38,60.7a5.44,5.44,0,0,1,.49.47h0l.26.26h0l.1.12a.43.43,0,0,1,.14.16,2.3,2.3,0,0,1,.28.34h0a7.32,7.32,0,0,1,1,2v.14a8.39,8.39,0,0,1,.46,2.58,2.41,2.41,0,0,1,0,.38h0v.14a9.83,9.83,0,0,1-.48,2.84v.14a5.58,5.58,0,0,1-.32.83h0c0,.16,0,.15-.12.31l-.11.17-.18.33h0a1.47,1.47,0,0,1-.24.4,3.42,3.42,0,0,1-.26.4v.14a11.3,11.3,0,0,1-1.09,1.31,5.56,5.56,0,0,1-.5.47l-.2.18-.11.1a9.94,9.94,0,0,1-2.19,1.37l.06.11m8-10.29a3.23,3.23,0,0,0,0-.44,9.68,9.68,0,0,0-.44-2.4L42.43,63a9.47,9.47,0,0,0-1.4-2.6l-.38-.55-.12-.17a10.42,10.42,0,0,0-.89-.87,6.8,6.8,0,0,0-.6-.46,8.26,8.26,0,0,0-3.63-1.44H33.05a15.94,15.94,0,0,0-3.24.38l-.26,0a15.36,15.36,0,0,0-2.18.7l-.71.26-.11,0-.09,0a13.81,13.81,0,0,0-1.24.72,10.85,10.85,0,0,0-1.42,1.11l-.12.12a8.67,8.67,0,0,0-1.9,2.52s-.1.15-.09.2a9.79,9.79,0,0,0-.42,1,7.66,7.66,0,0,0-.23.82,4.8,4.8,0,0,1-.16.71l0,.48a.7.7,0,0,0,0,.25,9.73,9.73,0,0,0,.17,3,.52.52,0,0,0,.07.22,10.14,10.14,0,0,0,.47,2.38l.18.36.05.19s.12.2.11.25a5.6,5.6,0,0,0,.38.61l.24.36a2.59,2.59,0,0,0,.14.29l.11.21h0l.1.11.12.14.18.22.2.22.18.2.15.16a10.85,10.85,0,0,0,2.63,1.94l.13.1.18,0h0c.6.23,1.92.58,2.54.73l.3.09a8.51,8.51,0,0,0,2.61.2h.4l.63-.11A7.56,7.56,0,0,0,34.62,78l.4-.14.43-.11.39-.11a4.8,4.8,0,0,0,1-.42l.36-.25,1-.71.12-.1L38.6,76h0l.44-.37.48-.48a11.78,11.78,0,0,0,1.07-1.27l.1-.14a11.41,11.41,0,0,0,1.23-2.14c.12-.26.13-.37.23-.64l.11-.32a11.07,11.07,0,0,0,.61-3.33l0-.21c0-.23,0-.42,0-.66M23.12,72.13c0-.1-.1-.2-.16-.28h0l-.77.14h0v.28h0Zm4.78,4.43-.53-.26h0a2.69,2.69,0,0,1-.14.54v.25l.28.14h.14l.29.14.18-.81h0m-5-4.43c0-.1-.1-.2-.16-.28h0l-.77.14h0v.28h0Zm4.78,4.43-.53-.26h0a2.69,2.69,0,0,1-.14.54v.25l.28.14h.14l.29.14.18-.81h0m-5-4.43c0-.1-.1-.2-.16-.28h0l-.77.14h0v.28h0Zm4.78,4.43-.53-.26h0a2.69,2.69,0,0,1-.14.54v.25l.28.14h.14l.29.14.18-.45L28,76.63m-4.92-4.5c0-.1-.1-.2-.16-.28h0l-.77.14h0v.28h0Zm0,0c0-.1-.1-.2-.16-.28h0l-.77.14h0v.28h0Zm4.78,4.43-.53-.26h0a2.69,2.69,0,0,1-.14.54v.25l.28.14h.14l.29.14.1-.74h0"/><path class="cls-6" d="M37.74,74.3a10.42,10.42,0,0,0,2.62-3.55,9.07,9.07,0,0,0-.79-9,6.9,6.9,0,0,0-5.51-2.91h-.89a13.53,13.53,0,0,0-6.24,1.49,9.38,9.38,0,0,0-2.13,1.57,9.36,9.36,0,0,1,1.76-1.22,13.53,13.53,0,0,1,6.24-1.49h.89A6.84,6.84,0,0,1,39.18,62a8.64,8.64,0,0,1,.62,8.82,17.73,17.73,0,0,1-2.06,3.39"/><path class="cls-8" d="M49.86,69.24a1.64,1.64,0,0,0-1.75,0,1.8,1.8,0,0,0-1,1.94c.38,1.94,2.73,1.63,3.41,0a1.48,1.48,0,0,0-.66-1.94"/><polygon class="cls-8" points="65.36 76.66 62.24 45.01 63.73 44.92 66.53 76.62 65.36 76.66"/><polygon class="cls-6" points="62.77 45.59 62.3 45.63 65.4 77.3 65.79 77.28 62.77 45.59"/><path class="cls-9" d="M80.09,74.41v.2h-1l-.94.11h-.44L67.65,75.91h-.78l.78.15L77.17,78h.29l1.94.37v.17l-1.94-.37h-.29l-9.48-1.82-.8-.15.62.33h.12l8,4.55h.25l1.7.93v.16l-1.84-.76H75.6l-.2-.1L67.53,77l-.31-.15-.44-.26.27.3.33.34,5.81,6.05.39.39.76.79.58.6h0l-.16.12h0l-.5-.52-.83-.88L73,83.35l-5.81-6-.39-.41-.22-.21.12.23.25.53,3.59,7.34.27.55.72,1.45V87h-.18v-.17l-.68-1.49-.25-.55-3.6-7.21L66.53,77v0l.09.62h0l1.22,8v.52l.2,1.3v.29h-.2v-.31l-.19-1.28v-.52l-1.28-8.11h0l-.1-.65h0l-.11.67-1.32,8v.5l-.29,1.15v.48h-.18v-.48l.18-1v-.53l1.36-8.14.11-.69v0l-.33.66-3.66,7-.29.6-.29.55-.14.25-.17.37h0v.13h0a.43.43,0,0,1-.16,0h0v-.12l.18-.38.4-.8.31-.6,3.57-7,.33-.66h0l.1-.2-.16.14-.56.5-5.7,5.16-.66.6-.62.54-.31.29-.13.12h0l-.14-.14h0l.14-.11.42-.39.62-.54.68-.6,5.7-5.16.56-.5h-.09l-.68.33-7.17,3.23-.82.37-.77.35-.39.17h-.16v-.15h.18l.41-.21.75-.33h0l.83-.37L65,76.68l.69-.31h-.09l-.76.1-8.2,1h-.79l-.95.11h-.6v-.19h.56l.95-.12h.79l8.2-1h.76l-.74-.15-8.39-1.61-.76-.15-1.16-.22h-.43a.48.48,0,0,1,0-.17h.51l1.16.23.76.14L64.9,76l.68.14h0l-.66-.5-7.66-4.19-.62-.35-1.34-.72h-.13v-.15h.23l1.34.74.62.33,7.75,4.2.49.27.25.12-.31-.25h0l-.33-.35L59,68.75l-.28-.29-1.27-1.33h0l.13-.12h0l1.32,1.36h0l.23.25,6.24,6.51.22.23.31.24-.28-.55v-.13l-4-8.28h0v-.11l-.4-.84-.45-.91h.17l.51,1,.35.72v.13h0l4,8.32.33.68-.25-.8-1.36-9.21h0v-.27l-.27-1.93h.17l.27,1.93v.27h0l1.36,9.23.12.74.11-.76,1.55-9.55h0v-.37L68.17,63h.18L68,64.92v.37h0L66.47,75v.44h0v.23h0l.17-.34L66.8,75l4.71-9.27h0l.21-.44.45-.86v-.15h.15v.13l-.43.84-.23.46h0L66.93,75l-.11.23-.27.54.46-.43.18-.15,8-7.21h0l.45-.41.69-.62.29-.25.47-.43.12.14-.47.43-.29.25-.7.64-.44.38h0l-8,7.2-.17.17-.39.33.46-.19.22-.12,9.69-4.36h0l.52-.23.89-.41.35-.16.53-.23v.18l-.53.23-.35.15-.89.41-.52.23h0l-9.69,4.36-.27.14-.41.17h.76l10.09-1.18H78L79,74.7h.39Z"/><path class="cls-6" d="M76.43,80l-.33.64L76,81h0l-.3.6c-.23.44-.46.93-.71,1.45l-.33.68-1,2.09v.14h0a12.51,12.51,0,0,1-4.5,1.64,8.77,8.77,0,0,1-1,.12,12,12,0,0,1-5.64-.93h0l-.73-.35a13,13,0,0,1-3.88-3l-.21-.25-.23-.28-.12-.13-.12-.16-.11-.15L57,82.28,56.78,82l-.56-.37c-.25-.41-.48-.82-.7-1.22L55.3,80a12.05,12.05,0,0,1-1-7,2.93,2.93,0,0,1,.17-.81l.27-1a11.37,11.37,0,0,1,4.6-5.82l1.93.22,1,.11h.49l-.43.27-.37.25-.17.12-.31.23a10,10,0,0,0-4.87,6.63,5.4,5.4,0,0,1-.15.74,8.53,8.53,0,0,0,1.14,5.54l.23.39a15.16,15.16,0,0,0,1.71,2.27A11.69,11.69,0,0,0,62,84.43l.77.45a8,8,0,0,0,4.46.83,7.86,7.86,0,0,0,1-.17A13.15,13.15,0,0,0,73.43,83l.65-.52A15.41,15.41,0,0,0,76.49,80"/><path class="cls-9" d="M75.6,84.36a1,1,0,0,0,.21-.2,1.8,1.8,0,0,1-.19.2Z"/><path class="cls-8" d="M67.42,76.72c0,.28-.14.35-.55.72a1.44,1.44,0,0,1-1.93-.54,1.29,1.29,0,0,1,.3-1.79,1.4,1.4,0,0,1,.3-.15h.19a1.38,1.38,0,0,1,1.7,1,1.44,1.44,0,0,1,0,.77"/><path class="cls-6" d="M67.43,76.64a1,1,0,0,1-.69.8,1.38,1.38,0,0,1-1.86-.52,1.23,1.23,0,0,1,.29-1.71,1.32,1.32,0,0,1,.29-.15h0s-1,2.72,1.86,1.64h0"/><path class="cls-8" d="M62.23,85.6l-.61-.28h-.14a2.5,2.5,0,0,1-.16.64v.29l.32.18h.16l.35.18a4.08,4.08,0,0,1,.22-1h0m-5.63-5.2-.18-.33h0l-.91.14h0v.31h0l.87-.14Zm5.63,5.2-.61-.28h-.14a2.5,2.5,0,0,1-.16.64v.29l.32.18h.16l.35.18a4.08,4.08,0,0,1,.22-1h0m-5.63-5.2-.18-.33h0l-.91.13h0v.14a.54.54,0,0,0,0,.18h0l1.15,0Zm5.63,5.2-.61-.28h-.14a2.5,2.5,0,0,1-.16.64v.29l.32.18h.16l.35.18a4.08,4.08,0,0,1,.22-1h0M56.74,80.3h0l-.81.08h0v.14a.54.54,0,0,0,0,.18h0l.87-.14m5.85,5.22L62,85.5H61.9a2.5,2.5,0,0,1-.16.64v.29l.32.18h.15l.36.18a4,4,0,0,1,.22-1h0m-6-5.38.08-.1-.75.08h0v.14a.54.54,0,0,0,0,.18h0l.81,0h0M70.63,85.5a9.56,9.56,0,0,1-2.51.75h-1a7.84,7.84,0,0,1-1.37,0,7.24,7.24,0,0,1-1.14-.13h-.18a11.12,11.12,0,0,1-2.1-.66h0l-.61-.27h-.14a11.92,11.92,0,0,1-2.82-2.12.62.62,0,0,1-.14-.14,9.8,9.8,0,0,1-1.72-2.41s-.07-.1-.06-.16h0L56.64,80h0a9.17,9.17,0,0,1-1.07-2.26,2.14,2.14,0,0,1-.06-.35,9.33,9.33,0,0,1-.13-3.16v-.18h0a1.57,1.57,0,0,1,.13-.77,5.78,5.78,0,0,0,.26-.89,11.09,11.09,0,0,1,.57-1.33.31.31,0,0,0,.1-.15,9.58,9.58,0,0,1,2-2.49l.14-.12L59,68h0a9,9,0,0,1,1.5-1.07l.45-.25.62-.2-.18.22h.1l.36-.14a14.35,14.35,0,0,1,2.49-.77h.18a16,16,0,0,1,3.24-.38h1.89a9.24,9.24,0,0,1,1.74.34h.18a7.12,7.12,0,0,1,2.63,1.44c.2.18.39.36.57.55h0a3,3,0,0,1,.3.32h0l.12.14.16.2.33.41v.12h0a10,10,0,0,1,1.21,2.29v.18a10.57,10.57,0,0,1,.53,3V75a11.74,11.74,0,0,1-.57,3.32.54.54,0,0,1,0,.18c-.12.33-.26.67-.38,1h0c0,.2-.17.38-.27.58h0l-.2.39h0c0,.16-.18.32-.28.48l-.29.45.21.16a14.52,14.52,0,0,1-1.28,1.54l-.69.44-.22.19-.16.12a11.26,11.26,0,0,1-2.57,1.62h0m9.49-11.82v-.51a11.55,11.55,0,0,0-.53-2.8L79.63,70A11.84,11.84,0,0,0,78,66.94l-.58-.71-.12-.14a10,10,0,0,0-1-1c-.22-.19-.46-.37-.7-.54a9.92,9.92,0,0,0-4.28-1.7h-.79a16.07,16.07,0,0,0-1.7,0h-.42a21,21,0,0,0-4,.5h-.18a16.32,16.32,0,0,0-2.57.81l-.53.15h0l-.8.38c-.5.26-.74.42-1.22.71a13.44,13.44,0,0,0-1.68,1.33l-.14.12a8.17,8.17,0,0,0-1.93,2.58L55,70c-.18.39-.34.77-.49,1.18a7.27,7.27,0,0,0-.28,1,5.84,5.84,0,0,0-.18.83c0,.21-.16.29-.15.5,0,0-.07.43-.07.49a10.9,10.9,0,0,0,.1,3.6v.19a12.4,12.4,0,0,0,.87,2.53l.22.42.08.34.1.17a7.38,7.38,0,0,0,.43.73l.28.42.2.26.12.15.11.16.12.16.12.14a3,3,0,0,0,.22.28l.24.25.19.22.14.14a12.12,12.12,0,0,0,3.13,2.38l.27.09.22.1.71.33.18.1a12.06,12.06,0,0,0,2.11.6h.18a12.51,12.51,0,0,0,3.4.21h.28a5,5,0,0,0,.77,0,10.7,10.7,0,0,0,2.26-.4l.29-.09.27-.1.22-.06a12.72,12.72,0,0,0,1.74-.85l.2-.1a9.24,9.24,0,0,0,1.16-.71l.14-.12.26-.22h0l.51-.45.56-.55a12.89,12.89,0,0,0,1.14-1.4s.15-.21.14-.26A16.1,16.1,0,0,0,79,80.15c.14-.32.18-.54.3-.88l.08-.27a12.23,12.23,0,0,0,.81-3.77V75c0-.28,0-.15,0-.43m-23.8,6.27-.17-.34h0l-.91.14h0v.14a.54.54,0,0,0,0,.18h0l.87-.14ZM62,86l-.62-.28h-.13a2.43,2.43,0,0,1-.16.63v.3l.31.18h.16l.36.17a4.54,4.54,0,0,1,.21-.94h0m-5.63-5.2-.18-.34h0l-.91.14h0V81h0l.87-.14Zm5.63,5.2-.61-.28H61.4a2.88,2.88,0,0,1-.15.63v.3l.31.18h.16l.36.17a4.17,4.17,0,0,1,.21-.95h0M56.66,81l-.18-.34h0l-.91.14h0v.32h0l.87-.14Zm5.63,5.19-.61-.27h-.14a2.43,2.43,0,0,1-.16.63v.3l.32.18h.16l.35.17a4.2,4.2,0,0,1,.22-1h0M56.8,81l-.18-.34h0l-.91.14h0V81a.48.48,0,0,0,0,.17h0l.87-.13Zm5.63,5.19-.61-.27h-.14a2.54,2.54,0,0,1-.16.63v.3l.32.17H62l.35.18a4.2,4.2,0,0,1,.22-1h0m-5.63-5.19-.18-.34h0l-.91.14h0V81a.49.49,0,0,0,0,.17h0l.87-.13Zm5.63,5.19L62,86h-.14a2.54,2.54,0,0,1-.16.63v.3l.32.17h.15l.36.18a4.2,4.2,0,0,1,.22-1h0"/><path class="cls-6" d="M74.54,83a10.79,10.79,0,0,0,2.63-4.1,10.62,10.62,0,0,0-.93-10.62,8.09,8.09,0,0,0-6.46-3.45H68.72a16.12,16.12,0,0,0-7.37,1.78,12,12,0,0,0-2.52,1.84A13,13,0,0,1,60.91,67,18.22,18.22,0,0,1,68,65.46c.35,0,.91,0,1.26,0a8,8,0,0,1,6.44,3.4,12.46,12.46,0,0,1,.9,10.44,6.46,6.46,0,0,1-2,2.7"/><path class="cls-8" d="M38.77,47.47a38.76,38.76,0,0,0,3.88-.31c.46,0,2.75-.5,1.76-1.31a21.51,21.51,0,0,0-5.25-1.26c-.83,0-2.21-.12-2.38,1.18s1,1.74,1.93,1.76"/><path class="cls-6" d="M43,47c-1.33.17-2.66.27-4,.31-.91,0-2.17-.27-1.93-1.76a1.45,1.45,0,0,1,.17-.57,1.49,1.49,0,0,0-.41.82c-.21,1.51,1,1.74,1.94,1.76,1.31,0,2.62-.14,3.92-.31.36,0,1.82-.31,1.93-.81a5.11,5.11,0,0,1-1.76.56"/><path class="cls-6" d="M48.81,70.58c-.39,0-.35.71,0,.68s.33-.64,0-.68"/><path class="cls-6" d="M49,70.93l-.46-.16a7,7,0,0,0-1.84,1.32c-.18.35.23,1.3,0,1.53h0c-.43.39-1.82,1.32-1.82,1.32l.4.25a7.75,7.75,0,0,0,1.94-1.42c.2-.31-.11-1.14,0-1.47a7.23,7.23,0,0,1,1.84-1.37"/><path class="cls-8" d="M43.38,76c1.19.8,2.8-.4,3.36-1s-.49-1.55-1.53-1.24S42.42,75.36,43.38,76"/><path class="cls-6" d="M46.74,74.74c-.56.55-2.17,1.77-3.36,1a.64.64,0,0,1-.25-.31.52.52,0,0,0,.25.62c1.19.8,2.8-.4,3.36-1a.48.48,0,0,0,.15-.52.45.45,0,0,1-.15.21"/><path class="cls-12" d="M65.25,31.19A22.28,22.28,0,0,1,45,46.16a20,20,0,0,1-4.5-.39,20.73,20.73,0,0,1-16.17-21A21.5,21.5,0,0,1,34.86,5.65a18.76,18.76,0,0,1,20.62.17A25.09,25.09,0,0,1,62,12.09l-.16-.24.7,1,.52.85a21.66,21.66,0,0,1,2.19,17.54"/><path class="cls-13" d="M61.87,11.77C56.22,4.58,46.52,9.39,46.52,9.39S32.16,4.25,29.91,21.19C27,43.17,48.09,45.85,48.09,45.85l-3,.31a20,20,0,0,1-4.5-.39,20.73,20.73,0,0,1-16.16-21A21.49,21.49,0,0,1,34.9,5.65a18.76,18.76,0,0,1,20.62.17,23.52,23.52,0,0,1,6.35,6"/><path class="cls-14" d="M55.55,6.12s-5.39,0-8.26,2.33h0l-.14.11L47,8.72h0a5,5,0,0,0-.6.7c0-.18,4.07-8.12,9.24-3.39Z"/><path class="cls-14" d="M46.27,9.24l-.13-.18h0c-2.25-3-7.08-1.76-7.08-1.76,3.36-5.22,7.12,1.78,7.21,1.94"/><path class="cls-15" d="M46.27,9.49l-.11-.25h0c-1.94-4.07-7.29-3-7.29-3,4.36-6.36,7.33,3,7.4,3.24"/><path class="cls-16" d="M46.16,9.24c-1.94-4.07-7.29-3-7.29-3a5.83,5.83,0,0,1,7.29,3"/><path class="cls-15" d="M55.44,4.87s-5.48-.23-8.1,3h0l-.14.17-.13.2h0a4.94,4.94,0,0,0-.53,1c0-.25,2.19-10.95,9-4.51Z"/><path class="cls-16" d="M55.42,4.87s-5.46-.23-8.06,3a8.59,8.59,0,0,1,5.37-3.37A4.53,4.53,0,0,1,55.42,4.87Z"/><path class="cls-15" d="M46.27,9.51a21.43,21.43,0,0,0-1.68-7.45h1.7a50.13,50.13,0,0,0,.29,7.25Z"/><path class="cls-16" d="M44.8,2h-.21a21.46,21.46,0,0,1,1.62,7.45l.14-.1A21.19,21.19,0,0,0,44.74,2"/><path class="cls-17" d="M46.1,22.07a2.48,2.48,0,0,0,1,2.19,2,2,0,0,0,2.26,0,2.14,2.14,0,0,0,.55-3,2.11,2.11,0,0,0-3.8.74"/><path class="cls-18" d="M49.82,22.32a6.05,6.05,0,0,0-3.12.93,2.17,2.17,0,0,0,.6.71,1.32,1.32,0,0,0,.85.3h.14a1.86,1.86,0,0,0,.85-.31,1.69,1.69,0,0,0,.68-1.61"/><path class="cls-2" d="M48.25,21a.89.89,0,0,0-.33.91.7.7,0,0,0,.78.43c.77-.18.69-.95.19-1.3a.58.58,0,0,0-.64,0"/><path class="cls-2" d="M49.28,22.41c-.22,0-.45,0-.43.3s.21.5.45.48.5-.78,0-.78"/><path class="cls-17" d="M55.79,21.33a2.47,2.47,0,0,0,1,2.19,1.92,1.92,0,0,0,2.26,0,2.13,2.13,0,0,0-1-3.88,2.1,2.1,0,0,0-2.27,1.65"/><path class="cls-18" d="M59.51,21.62a6.05,6.05,0,0,0-3.12.93,2.31,2.31,0,0,0,.6.72,1.37,1.37,0,0,0,.85.29H58a1.82,1.82,0,0,0,.85-.31,1.69,1.69,0,0,0,.68-1.61"/><path class="cls-2" d="M57.92,20.28a.88.88,0,0,0-.33.93.73.73,0,0,0,.8.45c.79-.18.71-1,.19-1.34a.57.57,0,0,0-.66,0"/><path class="cls-2" d="M59,21.76c-.18,0-.39,0-.37.27s.19.44.41.42.44-.69,0-.69"/><path class="cls-13" d="M48.21,25.5a1.64,1.64,0,0,0-1.07,0c-.34.09-1.18.46-.63.89a2.48,2.48,0,0,0,1,.35,3.45,3.45,0,0,0,1.2,0c.16,0,.47-.16.41-.37a2.76,2.76,0,0,0-.93-.87"/><path class="cls-13" d="M58.6,24.64a1.4,1.4,0,0,1,1-.07c.33,0,1.12.34.7.83a1.89,1.89,0,0,1-.91.44,2.86,2.86,0,0,1-1.09,0c-.16,0-.45-.11-.43-.32s.58-.76.76-.88"/><path class="cls-8" d="M60.87,45.69a8,8,0,0,1-5.7-2.81.78.78,0,0,1,0-1.1h0a.79.79,0,0,1,1.1.09A6.73,6.73,0,0,0,62,44.12,9.33,9.33,0,0,0,69.18,40a.81.81,0,0,1,1.09-.23.8.8,0,0,1,.23,1.09,11,11,0,0,1-8.35,4.88H60.87"/><path class="cls-19" d="M62.3,45.38a6.84,6.84,0,0,1-1.28,0,8.08,8.08,0,0,1-5.72-2.73.77.77,0,0,1,0-.87h-.13a.76.76,0,0,0,0,1.07h0a8,8,0,0,0,5.7,2.81,6.74,6.74,0,0,0,1.27,0,11,11,0,0,0,7.23-3.41,10.86,10.86,0,0,1-6.92,3.1"/><path class="cls-6" d="M46.18,73.5c-.94-.09-1.34-.15-1.32-.58,1.3-10.37,1.51-14.5,1-17.34A86.31,86.31,0,0,0,41,40.71h0a1.93,1.93,0,0,0-3.58.68,1.89,1.89,0,0,0,.46,1.22h0c1.65,1.94,5,11.34,5.35,13.57S43,73,43,73h0a.82.82,0,0,0,.29,1h.21s2.93,1.7,4,1.06,0-1.45-1.1-1.51"/><path class="cls-7" d="M44.3,73.79,44,73.65a.85.85,0,0,1-.31-1h0s.68-14.27.26-16.81c-.41-2.25-3.71-11.63-5.35-13.56h0a2,2,0,0,1-.47-1.23,1.9,1.9,0,0,1,.37-1.12,1.73,1.73,0,0,0-.79,2.63c.06.09.12.19.19.28h0c1.65,1.94,4.94,11.34,5.33,13.56s-.31,16.74-.31,16.74l.08.07a.63.63,0,0,0,.2.87l.3.14s2.93,1.7,4,1.06c.19-.08.31-.42.38-.62a7.07,7.07,0,0,1-3.63-.87"/><path class="cls-6" d="M39.49,34.78c-2.6-2.27-3.66-8.68-3.66-8.68h0a1.56,1.56,0,0,0-1.38-1.34,1.54,1.54,0,0,0-1.69,1.36,1.63,1.63,0,0,0,0,.54h0s1.69,7.75,5.47,9.92A168,168,0,0,0,54,43.19l.68-1.39s-12.67-4.75-15.25-7"/><path class="cls-7" d="M39.12,36.6c-3.78-2.19-5.45-9.94-5.45-9.94a2.26,2.26,0,0,1,0-.52,1.58,1.58,0,0,1,1.09-1.32h-.27a1.55,1.55,0,0,0-1.71,1.37,1.57,1.57,0,0,0,0,.53h0s1.69,7.75,5.47,9.94,15.81,6.61,15.81,6.61L54.2,43a154.37,154.37,0,0,1-15.08-6.32"/><path class="cls-6" d="M55.65,41.37c.2,0,.29.15.26.27s-.59.12-.86.25h0c.39.14.86,0,1.17.25a1.24,1.24,0,0,1,.25,1.67c-1,.85-2.52-.43-3.43-1.28a2.78,2.78,0,0,1,2.61-1.16"/><path class="cls-7" d="M53.58,42.65a2.16,2.16,0,0,1,1.94-1.26,2.76,2.76,0,0,0-2.44,1.18l.54.49a.72.72,0,0,1,0-.41"/><path class="cls-17" d="M57,26.42a5,5,0,0,1-.89,2.13c-1.12,1.4-2.77.72-3.87,0a7.69,7.69,0,0,1-1-.77,44.6,44.6,0,0,1,5.72-1.4"/><path class="cls-20" d="M56.54,27.76a2.28,2.28,0,0,1-3.1,1.43L53,29c.15-.28.53-.52.75-.75a2.47,2.47,0,0,1,2.48-.63,1.85,1.85,0,0,1,.45.21"/></g></g></g></g></svg>